<?xml version="1.0" encoding="UTF-8" standalone="no"?>
<svg
   xmlns:dc="http://purl.org/dc/elements/1.1/"
   xmlns:cc="http://creativecommons.org/ns#"
   xmlns:rdf="http://www.w3.org/1999/02/22-rdf-syntax-ns#"
   xmlns:svg="http://www.w3.org/2000/svg"
   xmlns="http://www.w3.org/2000/svg"
   xmlns:sodipodi="http://sodipodi.sourceforge.net/DTD/sodipodi-0.dtd"
   xmlns:inkscape="http://www.inkscape.org/namespaces/inkscape"
   version="1.2"
   viewBox="0 0 2075.2423 2354.6004"
   width="175.11984mm"
   height="198.69402mm"
   id="svg1487"
   sodipodi:docname="Layer28.svg"
   inkscape:version="1.0.2 (e86c8708, 2021-01-15)">
  <sodipodi:namedview
     pagecolor="#ffffff"
     bordercolor="#666666"
     borderopacity="1"
     objecttolerance="10"
     gridtolerance="10"
     guidetolerance="10"
     inkscape:pageopacity="0"
     inkscape:pageshadow="2"
     inkscape:window-width="1342"
     inkscape:window-height="805"
     id="namedview1489"
     showgrid="false"
     fit-margin-left="5"
     fit-margin-top="5"
     fit-margin-right="5"
     fit-margin-bottom="5"
     inkscape:showpageshadow="false"
     inkscape:zoom="0.82323927"
     inkscape:cx="289.1595"
     inkscape:cy="378.93427"
     inkscape:window-x="44"
     inkscape:window-y="23"
     inkscape:window-maximized="0"
     inkscape:current-layer="layer28"
     inkscape:document-rotation="0" />
  <defs
     id="defs84">
    <clipPath
       clipPathUnits="userSpaceOnUse"
       id="clipPath2204">
      <rect
         style="opacity:0.990354;fill:none;stroke:#000000;stroke-width:3.394"
         id="rect2206"
         width="1561.3312"
         height="1930.2112"
         x="388.22952"
         y="271.944" />
    </clipPath>
  </defs>
  <defs
     id="defs107" />
  <defs
     id="defs136" />
  <metadata
     id="metadata1485">
    <rdf:RDF>
      <rdf:Description
         dc:date="2021-04-30T14:29:02"
         dc:identifier=""
         dc:format="image/svg+xml"
         dc:description=""
         dc:title="">
        <dc:creator>
          <rdf:Bag>
            <rdf:li>Dennis</rdf:li>
          </rdf:Bag>
        </dc:creator>
        <dc:publisher>
          <rdf:Bag>
            <rdf:li>QGIS 3.16.6-Hannover</rdf:li>
          </rdf:Bag>
        </dc:publisher>
        <dc:subject>
          <rdf:Bag />
        </dc:subject>
      </rdf:Description>
      <cc:Work
         rdf:about="">
        <dc:format>image/svg+xml</dc:format>
        <dc:title />
        <dc:date>2021-04-30T14:29:02</dc:date>
        <dc:identifier />
        <dc:description />
        <dc:creator>
          <cc:Agent>
            <dc:title>Dennis</dc:title>
          </cc:Agent>
        </dc:creator>
        <dc:publisher>
          <cc:Agent>
            <dc:title>QGIS 3.16.6-Hannover</dc:title>
          </cc:Agent>
        </dc:publisher>
        <dc:type
           rdf:resource="http://purl.org/dc/dcmitype/StillImage" />
      </cc:Work>
    </rdf:RDF>
  </metadata>
  <g
     inkscape:groupmode="layer"
     id="layer28"
     inkscape:label="Layer28"
     style="display:inline">
    <path
       fill-rule="evenodd"
       d="m 1126.6482,69.330192 v 0 0 l -5.2605,-3.23272 -0.8747,-1.615784 0.8747,-1.616936 2.6365,1.616936 2.624,4.848504 v 0"
       vector-effect="none"
       id="path164"
       style="font-style:normal;font-weight:400;font-size:54.3472px;font-family:'.AppleSystemUIFont';opacity:0.973154;fill:none;stroke:#e28b44;stroke-width:3.69607;stroke-linecap:square;stroke-linejoin:bevel;stroke-opacity:1" />
    <path
       fill-rule="evenodd"
       d="m 1359.9206,64.481688 -1.7493,2.770903 -3.9485,2.077601 -1.3245,0.441087 -5.2605,-0.441087 h -5.2604 l -5.2605,4.849656 v 0 l -3.5111,4.849657 -1.7494,2.910254 -1.4994,1.939402 -3.761,4.849656 v 0 l -5.2605,4.041189 -5.2605,-0.808468 -4.2109,-3.232721 -1.0495,-0.969701 -4.2109,-3.879955 -1.0496,-0.969701 -4.2109,-3.879955 -1.0496,-1.615785 -1.7618,-3.233872 -1.2495,-4.849656 -1.3745,-4.848504 -0.8871,-1.212702"
       vector-effect="none"
       id="path180"
       sodipodi:nodetypes="ccccccccccccccccccccccccc"
       style="font-style:normal;font-weight:400;font-size:54.3472px;font-family:'.AppleSystemUIFont';display:inline;opacity:0.973154;fill:none;stroke:#e28b44;stroke-width:3.69607;stroke-linecap:square;stroke-linejoin:bevel;stroke-opacity:1" />
    <path
       fill-rule="evenodd"
       d="m 884.61659,132.37457 v 0 0 l -5.26046,-4.84965 v 0 l -5.26047,-4.84851 v 0 l -5.26047,-4.84966 v 0 l -2.63649,-4.84965 -2.62398,-2.42541 -1.74933,-2.42425 -3.51114,-4.84965 h -5.26047 v 0 l -5.26047,-2.42541 h -5.26047 l -5.27296,-1.211548 -5.26047,-1.212702 h -5.26047 v 0 l -2.62774,-4.849657 -2.63023,-4.849656 h -10e-4 10e-4 l 1.75307,-4.849656 1.75432,-4.849656 1.75058,-4.849657 v 0 l 5.26047,-3.23272 5.26047,-1.616936 v 0 0 l 5.27296,1.616936 5.26047,-1.616936 v 0 0 l 5.26047,4.849656 5.26047,-1.615784 5.26047,-0.808468 5.26047,-1.212702 5.26047,-1.212702 v 0 0 l 5.26047,2.425404 5.26046,2.424252 v 0 l 5.26047,3.233872 3.51115,1.615785 1.74932,0.969701 5.27297,1.940553 5.26047,1.939402 v 0 l 5.26047,2.425404 1.74932,2.424252 -1.74932,1.616936 -2.63649,3.23272 -2.62398,1.385452 -5.26047,1.847269 -2.63649,1.616936 -2.63648,4.84966 v 4.84965 l 1.06209,4.84966 1.57439,4.84965 -0.52479,4.84966 -2.11169,4.84851 v 0 l -5.26047,2.4254 -5.26047,2.42425"
       vector-effect="none"
       id="path194"
       style="font-style:normal;font-weight:400;font-size:54.3472px;font-family:'.AppleSystemUIFont';opacity:0.973154;fill:none;stroke:#e28b44;stroke-width:3.69607;stroke-linecap:square;stroke-linejoin:bevel;stroke-opacity:1" />
    <path
       fill-rule="evenodd"
       d="m 1071.7818,64.481688 0.7497,4.848504 -0.2499,4.849656 0.8747,4.849657 0.8872,2.425404 0.8746,2.424252 0.8747,4.849656 0.3499,4.849656 -0.3499,4.849657 -1.7493,4.84966 v 0 l -3.5112,4.84965 -1.7618,1.61579 -5.2605,1.61693 h -5.2604 -5.2605 l -5.2605,1.61694 v 0 0 l -5.2604,-2.42541 -5.2605,2.42541 v 4.84965 0 l -5.2605,4.84966 3.5112,4.84851 v 4.84965 l -2.1992,4.84966 -1.312,2.4254 -2.6365,2.42425 -2.624,1.61694 -2.6364,-1.61694 -2.624,-0.9697 -5.2605,-1.45455 -3.1613,-2.4254 -2.1117,-3.23272 -0.8746,-1.61694 0.1249,-4.84965 0.175,-4.84851 -0.9247,-4.84966 -3.761,-4.04118 -1.312,-0.80847 -3.9485,-2.91026 -2.62398,-1.9394 -2.63648,-2.4254 -1.74933,-2.42425 -2.01172,-4.84966 v -4.849657 l 0.7622,-4.849656 v -4.849656 l -2.26162,-3.636954 -0.87467,-1.212702 -2.88638,-4.849657 -1.49942,-3.23272 -0.87466,-1.616936 v -4.848504"
       vector-effect="none"
       id="path196"
       sodipodi:nodetypes="ccccccccccccccccccccccccccccccccccccccccccccccccccccccc"
       style="font-style:normal;font-weight:400;font-size:54.3472px;font-family:'.AppleSystemUIFont';opacity:0.973154;fill:none;stroke:#e28b44;stroke-width:3.69607;stroke-linecap:square;stroke-linejoin:bevel;stroke-opacity:1" />
    <path
       fill-rule="evenodd"
       d="m 1237.143,239.06586 v 0 h -5.2605 v 0 -4.84966 -4.84965 l -1.7493,-4.84966 -0.8747,-4.84966 -2.6364,-4.84965 v 0 -4.84966 0 l 5.2604,-4.84966 v 0 l 5.2605,-4.84965 v 0 l 5.273,-4.84966 v 0 l 4.1983,-4.84965 1.0621,-4.84966 -1.0621,-4.84851 -4.1983,-4.84965 v 0 l -5.273,-2.91026 -2.624,-1.9394 -2.6365,-3.23387 -1.0496,-1.61578 1.0496,-4.84966 -2.0992,-4.84966 -3.1612,-4.84965 v 0 l -3.5112,-4.84966 2.1992,-4.84966 1.312,-1.61578 3.5111,-3.23387 1.7493,-1.61579 3.5112,-3.23387 v -4.84965 l -3.5112,-4.84851 v 0 l -5.2604,-1.2127 -5.2605,-2.4254 -5.2605,-0.24185 h -5.2605 l -5.2604,-0.96971 v 0 l -5.2605,-4.84965 v 0 -4.84966 0 l 1.7493,-4.84965 1.7494,-4.84966 1.7618,-4.849657 v 0 l 2.624,-4.849656 2.6364,-2.909103 2.0992,-1.940553 3.1613,-2.077602 5.2605,-2.078753 h 5.2605 5.2604 l 5.2605,1.385452 4.2109,2.770903 1.0621,0.808468 5.2604,4.041188 v 0 l 5.2605,4.849656 v 0 l 5.2605,4.849657 v 0 l 5.2604,4.84966 v 0 l 3.7611,4.84965 1.4994,1.9394 2.2491,2.91026 3.0114,3.8788 0.7497,0.97085 3.0113,4.84966 1.4994,2.42425 1.4995,2.42426 3.761,4.84965 v 0 l 3.2862,4.84966 1.9743,2.91025 1.1745,1.9394 2.5116,4.84966 1.5744,3.63695 0.5372,1.21271 1.0496,4.84965 -0.5248,4.84966 -1.062,4.84966 v 0 l -2.3366,4.84965 -2.9239,4.84966 v 0 l -2.624,4.84965 -1.8868,4.84851 -0.7497,3.23387 -0.5873,1.61579 -2.0367,4.84965 -2.6365,4.04119 -0.8746,0.80847 -4.3858,3.03118 -3.1613,1.81847 -2.0992,1.38546 -3.2862,3.4642 -1.9743,4.84966 v 0 l -1.4994,4.84965 -1.6618,4.84966 -2.0992,4.84966 v 0 l -5.2605,4.84965 v 0 l -5.2605,2.42425 h -5.2604 l -5.273,2.42541"
       vector-effect="none"
       id="path230"
       style="font-style:normal;font-weight:400;font-size:54.3472px;font-family:'.AppleSystemUIFont';opacity:0.973154;fill:none;stroke:#e28b44;stroke-width:3.69607;stroke-linecap:square;stroke-linejoin:bevel;stroke-opacity:1" />
    <path
       fill-rule="evenodd"
       d="m 1526.5313,279.47889 1.0621,-1.61693 -1.0621,-0.80847 -1.312,0.80847 1.312,1.61693"
       vector-effect="none"
       id="path246"
       style="font-style:normal;font-weight:400;font-size:54.3472px;font-family:'.AppleSystemUIFont';opacity:0.973154;fill:none;stroke:#e28b44;stroke-width:3.69607;stroke-linecap:square;stroke-linejoin:bevel;stroke-opacity:1" />
    <path
       fill-rule="evenodd"
       d="m 1397.631,389.40175 -2.6364,1.61693 h -5.2605 l -5.2605,-1.61693 v 0 l -5.2605,-2.42426 h -5.2604 l -5.2605,-2.4254 h -5.2605 l -5.2604,1.61694 -5.273,-1.61694 v 0 l -2.624,-4.84966 -2.6365,-2.42425 -2.624,-2.4254 v -4.84966 -4.84965 -4.84851 -4.84966 l 2.624,-4.84965 v 0 l 2.6365,-4.84966 1.312,-4.84965 1.312,-2.42541 2.6365,-2.42425 2.6365,-4.84966 -2.6365,-4.84965 0.8746,-4.84966 1.7619,-4.84966 v -4.84965 -4.84966 l -2.6365,-4.8485 -2.6365,-4.84966 v 0 l -3.4986,-4.84965 -1.7619,-2.42541 -5.2604,-1.21155 -1.7494,-1.2127 -3.5111,-3.23272 -2.624,-1.61694 -2.6365,-4.84965 v 0 -4.84966 0 l 1.312,-4.84966 1.3245,-4.84965 2.624,-4.84966 v 0 l 3.1613,-4.84965 1.2245,-4.84966 0.8747,-1.61579 1.7618,-3.23272 0.8746,-4.84965 -1.5868,-4.84966 -1.0496,-0.9697 -3.4987,-3.87995 -1.7618,-1.94056 -2.2491,-2.9091 -0.3749,-4.84966 1.312,-4.84965 1.312,-3.23272 0.8747,-1.61694 4.3858,-4.04119 5.2604,1.27029 2.6365,2.7709 2.624,3.23272 1.1746,1.61694 4.0984,4.24388 0.4748,0.60577 4.7856,4.84966 v 0 l 4.5983,4.84966 0.6622,0.60577 5.2605,4.24388 v 0 l 4.5107,4.84966 0.7497,0.69215 4.5108,4.1575 0.7497,0.60578 5.2605,3.27303 1.4994,0.9697 3.7611,3.03118 1.9742,1.81848 3.2862,3.4642 1.3245,1.38545 3.936,3.63696 2.1117,1.2127 3.1488,1.81847 3.761,3.03118 1.5119,1.21271 3.936,3.63695 1.3245,1.61694 2.624,3.23272 2.6365,4.84965 v 0 l 2.6239,4.84966 2.0493,4.84966 0.5872,2.42425 0.5248,2.4254 1.387,4.84966 1.237,4.8485 1.5244,4.84966 0.5873,2.4254 0.4748,2.42425 v 4.84966 l -0.4748,4.84966 v 0 l -2.1117,4.84965 -3.1488,3.23272 -1.9742,1.61694 -3.2862,2.20428 -4.5108,2.64538 -0.7497,0.40423 -5.2605,2.02002 -5.2729,1.7321 -0.8747,0.6933 -3.2113,4.84966 -1.1745,3.23272 -0.7497,1.61693 -0.9996,4.84966 -0.2249,4.84851 0.4748,4.84965 1.4994,4.84966 v 0 0 l -1.312,4.84965 -2.624,4.84966 -1.3245,2.4254 -2.624,2.42426"
       vector-effect="none"
       id="path280"
       style="font-style:normal;font-weight:400;font-size:54.3472px;font-family:'.AppleSystemUIFont';opacity:0.973154;fill:none;stroke:#e28b44;stroke-width:3.69607;stroke-linecap:square;stroke-linejoin:bevel;stroke-opacity:1" />
    <path
       fill-rule="evenodd"
       d="m 1857.366,62.056284 v 2.425404 l 0.6498,2.424252 0.5248,2.424252 -0.5248,2.425404 -0.5248,2.424252 -3.1613,4.849657 -1.5744,1.616936 -3.1488,3.23272 -2.1116,2.155915 -3.7611,2.693741 0.7497,4.849656 3.0114,1.763198 5.2604,1.323261 5.2605,1.763198 v 0 l 5.2605,2.91025 2.6364,1.93941 2.624,3.23272 5.273,1.61693 v 0 4.84966 0 l -5.273,0.69215 -5.2604,2.21695 -1.4995,1.94055 -1.9992,4.84966 v 4.84851 l -0.4373,4.84965 -1.3245,4.84966 v 0 l -3.4987,4.84965 -1.7618,1.21271 -5.2604,2.55899 -2.0992,1.07796 -0.15,4.84966 2.2492,2.4254 3.1612,2.42425 2.0992,1.61694 5.2605,3.23272 v 0 l 3.5111,4.84966 v 4.84965 l 0.6998,4.84966 -1.0496,4.84965 -2.1117,4.84851 -1.0496,1.2127 -3.9485,3.63696 -1.312,0.6933 -5.2604,1.38545 -5.2605,0.8315 -5.2605,-0.26488 -5.2605,0.12668 -2.2616,2.0776 0.2874,4.84966 1.9742,3.63695 0.6498,1.2127 3.1113,4.84966 1.4994,1.61694 2.624,3.23272 2.6365,3.23272 1.7493,1.61693 3.5112,3.87996 1.312,0.9697 2.1991,4.84966 -3.5111,4.84965 v 0 l -5.2605,2.9091 -5.2605,-2.9091 v 0 l -2.6365,-4.84965 -2.624,-3.87996 -0.6622,-0.9697 -4.5982,-3.7717 -1.7618,-1.07796 -3.4987,-2.15591 -5.2605,-2.69374 v 0 l -5.2729,-2.69374 -4.1984,-2.15592 -1.0621,-0.44109 -5.2605,-3.33061 -1.7493,-1.07796 -3.5111,-2.15476 -3.7611,-2.69489 -1.4994,-1.38545 -2.9239,-3.46421 -2.3366,-2.7709 -5.2604,-0.46182 -1.7494,3.23272 -1.5993,4.84966 0.7122,4.84965 2.1616,4.84966 0.4749,0.9697 2.0992,3.87996 2.6864,4.84965 0.4748,0.9697 2.0992,3.87996 2.6865,4.84966 0.4748,1.21155 1.4369,3.6381 2.0742,4.84966 1.7494,3.8788 0.3748,0.97085 1.387,4.84851 -0.1874,4.84966 -1.5744,1.2127 -5.2605,0.5194 -5.2605,2.23653 -5.2604,-2.15016 -5.2605,-1.30714 -3.5112,-0.51133 -1.7493,-0.3455 -5.2604,-2.20659 -5.2605,-0.87066 -5.273,2.51408 -3.1488,0.90867 -2.1116,0.60692 -3.4987,-0.60692 -1.7618,-0.40424 -5.2605,-2.28951 -2.624,2.69375 -0.3373,4.84965 v 4.84966 l -2.2992,3.3951 -1.5743,1.45455 -3.6861,1.69756 -5.2605,3.1521 v 0 l -5.2605,3.87996 -1.0496,0.9697 -4.2108,4.84965 v 0 l -3.5861,4.84966 -1.437,4.84966 -0.2374,0.37313 -1.7618,-0.37313 -3.5112,-1.21271 -2.424,-3.63695 -2.8364,-3.39511 -4.5983,3.39511 -0.6622,0.26949 -5.2605,1.85187 -5.2604,2.35516 -1.0496,0.37314 -4.2109,3.23272 -0.8122,1.61693 -2.474,4.84966 -1.9743,2.64422 -1.3869,2.20428 -2.3366,4.84966 -1.5369,4.24388 -0.3124,0.60577 -1.237,4.84966 -1.6119,4.84966 -2.0992,2.23883 -3.0738,2.61082 -2.1867,1.73211 -5.2605,1.35435 -5.2729,1.15742 -0.6498,0.60578 -4.6107,4.84966 v 0 l -3.2862,4.84965 -1.7244,4.84966 -0.2499,0.60577 -3.0613,4.24388 -2.1991,2.42426 -2.624,2.4254 -2.6365,2.02002 -2.8364,2.82849 -2.4241,2.64537 -2.1866,2.20428 -2.2492,4.84966 -0.8246,2.91025 -1.0496,1.9394 -0.9747,4.84966 -0.2374,4.84966 0.8247,4.84965 1.437,2.91026 0.5872,1.9394 -0.2124,4.84966 -0.3748,0.80846 -5.2605,4.04119 v 0 l -5.2605,4.84966 v 4.84965 0 l -3.5111,4.84966 -1.7493,4.84851 v 0 l -2.6365,4.84965 -2.624,2.42541 -2.6365,2.42425 -2.6365,1.61693 -3.4986,3.23272 -1.7618,4.84966 5.2604,4.84966 v 0 0 0 l -5.2604,-4.84966 v 0 l -5.2605,-4.84966 h -5.2605 v 0 l -5.2605,-4.84965 v 0 l -2.6239,-4.84966 v -4.84965 l -2.6365,-2.42426 -1.7493,-2.42425 -3.5112,-2.4254 -5.2605,-2.42426 -5.2604,0.60578 -1.7618,-0.60578 -1.7494,-4.84965 -1.7493,-4.84966 v 0 -4.84965 0 l 1.7493,-4.84966 1.7494,-4.84966 1.7618,-4.84965 v -4.84966 -4.84966 0 l 2.624,-4.84965 -2.624,-4.84966 v 0 -4.84965 0 l 1.7493,-4.84851 3.5111,-3.23387 1.312,-1.61579 3.9485,-3.6381 1.312,-1.21155 3.9485,-2.42541 5.2604,-1.61578 2.6365,-0.80847 2.624,-1.2127 3.9485,-3.63695 1.312,-4.84966 -0.8747,-4.84966 -0.6247,-4.84965 -0.4748,-4.84966 0.4748,-4.84966 1.4994,-4.84965 v 0 l 3.1613,-4.84966 0.3498,-4.8485 1.7494,-4.84966 -5.2605,-1.61693 -5.2605,-0.80847 -1.7493,2.4254 -3.5112,2.42425 -4.2108,2.42541 -1.0496,0.53782 -5.2605,-0.53782 -0.8747,4.8485 -1.7618,4.84966 -1.8742,4.84965 -0.7498,1.21271 -3.1612,3.63695 -2.0992,2.42541 -2.1117,2.42425 -3.1488,2.4254 -3.9485,2.42425 -1.312,0.69331 -5.2729,2.53941 -3.4987,1.61694 -1.7618,0.6933 -5.2605,0.92364 -5.2604,0.32246 -5.2605,-1.9394 v 0 l -5.2605,-4.84966 v 0 l -3.5111,-4.84965 -0.9996,-4.84966 0.7497,-4.84966 2.2616,-4.84965 1.4994,-1.61579 3.0114,-3.23387 2.2491,-2.42425 3.1613,-2.42425 2.0992,-1.61694 4.2108,-3.23272 1.0496,-0.97085 4.2109,-3.8788 1.0496,-0.80847 4.3858,-4.04119 -0.2874,-4.84966 -4.0984,-3.3951 -5.2605,1.31635 -5.2604,2.07875 v 0 l -5.2605,2.15477 -5.2605,1.07795 -5.2604,0.40424 -5.2605,-1.2127 -3.5112,-2.42426 -0.9996,-4.84965 1.4994,-4.84966 3.0114,-3.23272 1.4994,-1.61694 3.7611,-4.04118 0.7497,-0.80847 4.5107,-4.84966 v 0 l 5.2605,-4.84965 v 0 l 3.1613,-4.84966 1.5119,-4.84851 0.5873,-2.4254 0.6622,-2.42425 1.312,-4.84966 1.7868,-4.84965 1.4994,-4.84966 v 0 l 2.2617,-4.84966 2.9988,-3.23272 2.6365,-1.61693 2.624,-1.07796 5.2729,-1.3463 3.4987,-2.4254 1.7618,-1.61694 5.2605,-3.23272 v 0 l 2.624,-4.84965 2.6364,-3.87881 0.7498,-0.97085 3.761,-4.84965 0.7497,-0.96971 3.0113,-3.87995 -0.1374,-4.84851 -0.7747,-4.84965 -0.3499,-4.84966 1.262,-4.84965 2.2492,-4.84966 -5.2605,-2.4254 h -5.2605 l -5.2604,1.2127 -1.0496,1.2127 -1.2121,4.84966 -0.3748,4.84965 -0.6498,4.84966 -1.2245,4.84965 -0.7497,0.96971 -3.0113,3.8788 -2.2492,2.4254 -1.7618,2.42426 -3.5111,4.1575 -0.7497,0.69215 -4.5108,2.64537 -5.2605,0.74974 -5.2604,0.91557 -1.0496,0.53898 -4.2109,3.23387 -1.4994,1.61578 -3.7611,4.04119 -0.6622,0.80847 -4.011,4.84966 -0.5872,0.9697 -2.3366,3.87995 -1.8743,4.84966 -1.0496,4.84966 v 4.84965 0 l -1.7618,4.84966 -2.8489,4.84965 -0.6498,0.80732 -5.2605,4.04119 v 0 l -5.2604,1.81963 -5.273,-1.01116 -1.7493,-0.80847 -3.5112,-1.38545 -5.2604,-2.77091 -1.0496,-0.69215 -4.2109,-3.87995 -0.8747,-0.9697 -4.3858,-4.84966 v 0 l -3.761,-4.84965 -1.4994,-3.23388 -0.8747,-1.61578 0.8747,-4.84966 v 0 l 2.2491,-4.84965 3.0113,-4.84966 v 0 l 2.2617,-4.84966 -0.15,-4.84965 -2.1117,-1.61579 -5.2604,1.61579 v 0 l -5.2605,1.61693 -5.2605,0.80847 -5.2604,0.26949 -5.2605,0.53898 -5.2605,-2.4254 -0.8871,-0.80847 -2.4116,-4.84966 -1.9742,-3.63695 -0.7497,-1.2127 -1.4995,-4.84966 1.3745,-4.84851 0.8747,-1.2127 1.9742,-3.63695 2.6365,-4.84966 0.6622,-1.2127 2.2492,-3.63695 3.0113,-3.23272 1.4994,-1.61694 3.7611,-3.46421 1.4994,-1.38545 3.761,-4.84965 -5.2604,-4.15636 -5.2605,0.2764 h -5.2605 l -5.2729,-0.9697 v 0 l -5.2605,-2.42425 -5.2605,-0.66221 -4.5982,3.08646 -0.6622,0.6933 -4.5108,4.15636 -0.7497,0.60577 -5.2605,1.2127 -3.1613,-1.81847 -2.0992,-1.9394 -2.6364,-2.91026 v -4.84966 l 1.7618,-4.84965 0.8746,-4.84966 -2.2616,-4.84965 -1.0246,-4.84851 3.2862,-4.84966 v 0 l 5.2605,-2.15591 5.2605,0.94321 3.5111,1.2127 1.7494,0.80732 5.2604,2.82964 5.2605,-0.86605 3.0113,-2.77091 2.2492,-2.4254 1.9742,-2.42425 3.2987,-3.03118 3.1488,-1.81848 2.1117,-1.07796 5.2605,-2.15476 5.2604,-1.07796 2.624,-0.53897 2.6365,-0.53898 5.2605,-1.2795 4.3858,-3.03118 -4.3858,-3.464205 -2.6365,-1.385452 -2.624,-1.385451 -5.2605,-1.847269 -3.9484,-1.616936 -1.312,-0.69215 -5.2605,-4.157506 v 0 0 l 2.0992,-4.849656 3.1613,-1.615785 5.2604,-2.02117 2.0992,-1.212702 3.1613,-1.615784 5.2605,-2.54057 1.312,-0.693302 -1.312,-0.969701 -4.2109,-3.878803 -1.0496,-0.486003"
       vector-effect="none"
       id="path304"
       sodipodi:nodetypes="ccccccccccccccccccccccccccccccccccccccccccccccccccccccccccccccccccccccccccccccccccccccccccccccccccccccccccccccccccccccccccccccccccccccccccccccccccccccccccccccccccccccccccccccccccccccccccccccccccccccccccccccccccccccccccccccccccccccccccccccccccccccccccccccccccccccccccccccccccccccccccccccccccccccccccccccccccccccccccccccccccccccccccccccccccccccccccccccccccccccccccccccccccccccccccccccccccccccccccccccccccccccccccccccccccccccccccccccccccccccccccccccccccccccccccccccccccccccccccccc"
       style="font-style:normal;font-weight:400;font-size:54.3472px;font-family:'.AppleSystemUIFont';opacity:0.973154;fill:none;stroke:#e28b44;stroke-width:3.69607;stroke-linecap:square;stroke-linejoin:bevel;stroke-opacity:1" />
    <path
       fill-rule="evenodd"
       d="m 1447.6117,500.94154 v 0 h -5.2604 -5.2605 v 0 l -5.2605,-4.84966 v 0 l -2.6365,-4.84965 -2.6239,-4.84966 v 0 0 l 2.6239,-4.84851 2.6365,-4.84965 v 0 l 5.2605,-4.84966 v -4.84965 0 l 3.5111,-4.84966 v -4.84966 l 1.7494,-4.84965 v -4.84966 0 l 1.7493,-4.84966 0.8872,-4.84965 1.3119,-4.84966 1.312,-4.84965 v 0 l 1.0496,-4.84851 0.6998,-4.84966 2.6364,-4.84965 0.8747,-0.80847 5.2605,-2.65574 5.2604,1.52365 1.7619,1.94056 3.4986,4.84965 v 0 l 1.5869,4.84966 1.0496,4.84851 0.6622,4.84965 v 4.84966 4.84965 l -1.7868,4.84966 -1.5119,3.23272 -0.7497,1.61694 -2.1617,4.84965 -2.3491,3.23272 -1.3119,1.61694 -2.5116,4.84966 -1.4369,2.9091 -1.4994,1.94055 -1.1246,4.84966 -0.8747,4.84965 -0.7122,4.84851 -0.6997,4.84966 -0.3499,1.2127 -3.9485,3.63695 -1.312,4.84966"
       vector-effect="none"
       id="path344"
       style="font-style:normal;font-weight:400;font-size:54.3472px;font-family:'.AppleSystemUIFont';opacity:0.973154;fill:none;stroke:#e28b44;stroke-width:3.69607;stroke-linecap:square;stroke-linejoin:bevel;stroke-opacity:1" />
  </g>
</svg>
