<?xml version="1.0" encoding="UTF-8" standalone="no"?>
<svg
   xmlns:dc="http://purl.org/dc/elements/1.1/"
   xmlns:cc="http://creativecommons.org/ns#"
   xmlns:rdf="http://www.w3.org/1999/02/22-rdf-syntax-ns#"
   xmlns:svg="http://www.w3.org/2000/svg"
   xmlns="http://www.w3.org/2000/svg"
   xmlns:sodipodi="http://sodipodi.sourceforge.net/DTD/sodipodi-0.dtd"
   xmlns:inkscape="http://www.inkscape.org/namespaces/inkscape"
   version="1.2"
   viewBox="0 0 2075.2423 2354.6004"
   width="175.11984mm"
   height="198.69402mm"
   id="svg1487"
   sodipodi:docname="Layer4.svg"
   inkscape:version="1.0.2 (1.0.2+r75+1)">
  <sodipodi:namedview
     pagecolor="#ffffff"
     bordercolor="#666666"
     borderopacity="1"
     objecttolerance="10"
     gridtolerance="10"
     guidetolerance="10"
     inkscape:pageopacity="0"
     inkscape:pageshadow="2"
     inkscape:window-width="1377"
     inkscape:window-height="826"
     id="namedview1489"
     showgrid="false"
     fit-margin-left="5"
     fit-margin-top="5"
     fit-margin-right="5"
     fit-margin-bottom="5"
     inkscape:showpageshadow="false"
     inkscape:zoom="0.82323927"
     inkscape:cx="131.85408"
     inkscape:cy="378.93427"
     inkscape:window-x="1832"
     inkscape:window-y="54"
     inkscape:window-maximized="0"
     inkscape:current-layer="layer4"
     inkscape:document-rotation="0" />
  <defs
     id="defs84">
    <clipPath
       clipPathUnits="userSpaceOnUse"
       id="clipPath2204">
      <rect
         style="opacity:0.990354;fill:none;stroke:#000000;stroke-width:3.394"
         id="rect2206"
         width="1561.3312"
         height="1930.2112"
         x="388.22952"
         y="271.944" />
    </clipPath>
  </defs>
  <defs
     id="defs107" />
  <defs
     id="defs136" />
  <metadata
     id="metadata1485">
    <rdf:RDF>
      <rdf:Description
         dc:date="2021-04-30T14:29:02"
         dc:identifier=""
         dc:format="image/svg+xml"
         dc:description=""
         dc:title="">
        <dc:creator>
          <rdf:Bag>
            <rdf:li>Dennis</rdf:li>
          </rdf:Bag>
        </dc:creator>
        <dc:publisher>
          <rdf:Bag>
            <rdf:li>QGIS 3.16.6-Hannover</rdf:li>
          </rdf:Bag>
        </dc:publisher>
        <dc:subject>
          <rdf:Bag />
        </dc:subject>
      </rdf:Description>
      <cc:Work
         rdf:about="">
        <dc:format>image/svg+xml</dc:format>
        <dc:title />
        <dc:date>2021-04-30T14:29:02</dc:date>
        <dc:identifier />
        <dc:description />
        <dc:creator>
          <cc:Agent>
            <dc:title>Dennis</dc:title>
          </cc:Agent>
        </dc:creator>
        <dc:publisher>
          <cc:Agent>
            <dc:title>QGIS 3.16.6-Hannover</dc:title>
          </cc:Agent>
        </dc:publisher>
        <dc:type
           rdf:resource="http://purl.org/dc/dcmitype/StillImage" />
      </cc:Work>
    </rdf:RDF>
  </metadata>
  <g
     inkscape:groupmode="layer"
     id="layer4"
     inkscape:label="Layer4"
     style="display:inline">
    <path
       fill-rule="evenodd"
       d="m 300.58082,2166.7668 0.34987,-2.43 -0.34987,-0.4837 -2.63148,0.4837 2.63148,2.43"
       vector-effect="none"
       id="path1166"
       style="font-style:normal;font-weight:400;font-size:54.3472px;font-family:'.AppleSystemUIFont';opacity:0.973154;fill:none;stroke:#26e4e1;stroke-width:3.69607;stroke-linecap:square;stroke-linejoin:bevel;stroke-opacity:1" />
    <path
       fill-rule="evenodd"
       d="m 926.71284,2247.3257 3.51115,-0.5413 -3.51115,-0.3455 -5.26047,0.1958 -1.74932,0.1497 1.74932,0.3455 5.26047,0.1958"
       vector-effect="none"
       id="path1248"
       style="font-style:normal;font-weight:400;font-size:54.3472px;font-family:'.AppleSystemUIFont';opacity:0.973154;fill:none;stroke:#26e4e1;stroke-width:3.69607;stroke-linecap:square;stroke-linejoin:bevel;stroke-opacity:1" />
    <path
       fill-rule="evenodd"
       d="m 372.48931,2288.0024 v -2.4185 l 0.66974,-4.8485 -0.75721,-4.8485 -3.00009,-4.86 -0.42108,-1.382 -2.02297,-3.4665 -3.2375,-1.4281 -5.26172,0.7832 -4.02345,-4.2036 -1.23827,-1.6123 -1.05209,-3.2362 -4.20963,-3.9732 -1.05209,-0.8753 -4.20963,-3.3974 -3.50739,-1.4511 -1.75433,-2.073 -1.55939,-2.7755 -2.46405,-4.8485 -1.23828,-0.9213 -1.91301,0.9213 -3.3487,1.8887 -5.26172,1.5778 -0.58478,1.382 -1.41945,4.8485 -2.65023,4.8485 -0.60726,0.6104 -5.26172,4.2381 v 0 0 l -5.26172,-0.5643 -5.26047,-1.7621 -5.26172,1.5663 -5.26171,-1.7851 -5.26172,1.1632 -5.26172,-1.0365 -1.54815,-2.43 -1.85679,-4.8485 -0.61851,-4.8485 1.51817,-4.8485 -0.54105,-4.8485 -2.21539,-4.8485 v 0 l -0.42609,-4.8485 0.24491,-4.8601 -0.36361,-4.8485 0.0187,-4.8485 -0.0375,-4.8485 0.56353,-2.9022 0.43858,-1.9463 2.02797,-4.8485 2.79517,-4.8485 v 0 l 5.26172,-4.0999 0.91464,-0.7486 4.34708,-3.2937 3.38244,-1.5548 1.87927,-1.6238 3.09506,-3.2247 1.41445,-4.8485 -4.50951,-4.1575 -2.25538,4.1575 -3.00633,2.5797 -3.68358,2.2688 -1.57814,0.9098 -5.26172,2.6143 -1.21453,1.3244 -4.04719,2.1076 -3.79978,2.7409 -1.46194,1.048 -2.63023,3.8005 -2.63149,3.0059 -1.75432,1.8426 -1.92926,4.8485 -1.57814,2.7755 -1.57814,2.073 -2.33035,4.8485 -1.35323,3.3629 -0.75096,1.4856 -1.47443,4.8485 -3.03632,4.8601 v 0 0 l -5.26172,-3.2362 -1.53441,-1.6239 -2.53027,-4.8485 -1.19579,-1.4165 -5.26172,-3.432 -5.26172,3.2362 -5.26172,-0.3685 -5.26172,-0.311 -2.25538,2.2918 -3.00633,4.1576 -5.26172,0.6909 v 0 0 l -5.26172,-4.3072 -2.25538,-0.5413 -3.00634,-0.691 -3.5074,0.691 -1.75432,0.2419 -5.26172,-0.2419 v 0 l -0.75096,-4.8485 0.75096,-3.0288 0.71848,-1.8197 3.85726,-4.8485 0.15993,-4.8485 0.52605,-4.8485 v -4.8485 0 l 3.50865,-4.8485 1.75307,-4.8485 v 0 l 1.57814,-4.8485 0.17618,-4.86 -0.70223,-4.8485 -1.05209,-1.382 -2.76893,-3.4665 -1.297,-4.8485 -1.19579,-2.0154 -2.04546,-2.8331 -2.55776,-4.8485 -0.6585,-2.4301 -0.68598,-2.4184 -2.43781,-4.8485 -0.7847,-4.8486 -1.35323,-1.6238 -2.63023,-3.2247 v -4.8485 l 2.63023,-3.501 4.09342,-1.359 1.1683,-0.737 3.04633,-4.1115 2.21539,-2.764 1.21453,-2.0845 -0.83842,-4.8485 -0.37611,-0.2073 -5.26172,-2.7064 -1.6831,-1.9348 -2.34034,-4.8485 -1.23828,-1.025 -3.28748,-3.8235 -1.97423,-4.3648 -0.30864,-0.4837 -0.90465,-4.8485 -2.8514,-4.8485 -1.19578,-3.0404 -1.05335,-1.8081 -1.57814,-4.8601 -0.78969,-4.8485 -1.1833,-4.8485 -0.65724,-1.6123 -2.10544,-3.2362 -0.81843,-4.8485 -2.33785,-3.8811 -1.91426,3.8811 -3.34746,3.0865 -0.95713,1.762 -0.66224,4.8485 -0.055,4.8485 -0.08,4.8485 1.51441,4.8601 0.23991,0.5988 2.16666,4.2497 1.20079,4.8485 -0.14244,4.8485 -0.0687,4.8485 1.4182,4.8485 0.68724,2.9137 0.70098,1.9348 0.84592,4.8485 0.11371,4.8485 -1.13456,4.8485 -0.52605,0.8868 -1.89427,3.9617 -2.42781,4.86 -0.93964,3.0289 -0.52605,1.8196 0.52605,2.073 0.7797,2.7755 1.24327,4.8486 1.01211,4.8485 0.80969,4.8485 -0.55604,4.8485 -3.28873,2.43 -5.26172,1.6699 -5.26172,0.7486 v 0 0 l -5.26172,-0.2304 -5.26171,-0.4606 -1.50317,0.691 1.50317,0.8061 5.26171,4.0424 v 0 l 5.26172,1.9924 5.26172,1.5892 2.63024,1.2669 2.63148,1.3244 5.26172,2.6719 0.92839,0.8522 1.96549,4.86 0.45358,4.8485 -0.71723,4.8485 -2.22539,4.8485 1.69935,4.8485 0.23366,4.8485 -2.33785,3.8811 -1.97299,0.9674 -3.28873,1.8657 -2.21539,2.9828 -3.04633,4.1 -0.65724,0.7485 0.65724,1.3936 5.26172,0.8867 5.26172,0.1498 1.75307,2.4184 0.35112,4.8485 0.25365,4.8601 -0.43358,4.8485 2.3191,4.8485 1.01836,2.6373 2.02297,2.2112 3.23875,1.048 5.26047,2.7179 5.26171,0.357 4.58698,-4.1229 0.67474,-0.6219 5.26172,-3.9963 4.78315,4.6182 0.47857,0.6449 4.88561,4.2036 0.37611,0.1958 5.26172,2.3033 4.38455,2.3494 0.87717,0.6334 5.26171,1.7966 5.26172,1.6699 1.16955,0.7486 4.09217,3.0865 2.00423,1.762 3.25749,3.7084 0.95588,1.1401 4.30584,3.9732 0.50106,0.8753 2.42156,4.8485 -0.85592,4.86 -2.0667,2.2227 -4.56074,2.6258 4.56074,4.2036 1.05209,0.6449 v 2.4185"
       vector-effect="none"
       id="path1312"
       style="font-style:normal;font-weight:400;font-size:54.3472px;font-family:'.AppleSystemUIFont';opacity:0.973154;fill:none;stroke:#26e4e1;stroke-width:3.69607;stroke-linecap:square;stroke-linejoin:bevel;stroke-opacity:1" />
    <path
       fill-rule="evenodd"
       d="m 570.79525,2288.0024 v -2.4185 l 0.2524,-4.8485 2.47905,-4.8485 0.65724,-1.2207 1.63312,-3.6393 -1.63312,-1.8081 -5.26172,0.1958 -5.26171,-0.3225 -1.75308,-2.9137 -3.50739,-3.0634 -5.26172,1.0826 -5.26172,-1.0135 -1.68435,-1.8542 -3.57737,-3.9272 -1.05209,-0.9213 -1.57939,-4.8485 -0.40485,-4.8485 -1.05584,-4.8485 -1.16955,-1.8542 -2.97385,-2.9943 -1.19954,-4.8485 -1.08833,-3.2362 -1.66185,3.2362 -0.15245,4.8485 1.01711,4.8485 0.79719,2.1997 1.85679,2.6488 0.14744,4.8485 -0.56978,4.8485 -0.9084,4.8485 1.90177,4.8485 2.8339,3.7775 0.47857,1.071 4.78315,4.86 v 0 l 5.26172,4.6873 0.16993,0.1612 0.83218,4.8485 v 2.4185"
       vector-effect="none"
       id="path1314"
       style="font-style:normal;font-weight:400;font-size:54.3472px;font-family:'.AppleSystemUIFont';opacity:0.973154;fill:none;stroke:#26e4e1;stroke-width:3.69607;stroke-linecap:square;stroke-linejoin:bevel;stroke-opacity:1" />
    <path
       fill-rule="evenodd"
       d="m 855.86519,2285.5839 2.16167,-4.8485 0.28739,-3.2361 0.16244,-1.6124 5.09803,-4.86 v 0 l 5.26047,-0.1842 5.26047,-2.8792 2.3116,-1.7851 2.94887,-4.2842 0.63725,-0.5643 4.62321,-2.2227 2.48654,-2.6258 2.77393,-3.3513 1.32449,-1.4972 3.93598,-4.503 2.26163,-0.3455 3.01134,-0.4837 0.99961,0.4837 4.26086,3.0519 2.49903,1.7966 2.76144,1.3014 5.26046,-0.691 1.46194,-0.6104 -1.46194,-3.4665 -1.76182,-1.382 -3.49864,-0.8062 -2.3366,-4.0423 -2.92387,-4.1806 -0.58728,-0.6679 -4.67319,-2.0385 -5.27297,-1.1977 -2.03671,-1.6123 -3.22376,-2.9713 -5.26047,1.9002 -1.64936,1.0711 -3.6111,1.5662 -5.26047,0.4722 -5.26047,0.081 -5.26047,-2.119 v 0 -4.8485 0 l 2.09919,-4.8485 -1.14956,-4.8601 0.16244,-4.8485 -0.63726,-4.8485 2.69896,-4.8485 1.61188,-4.8485 0.2624,-4.8485 -0.31238,-4.8485 0.5248,-3.8811 0.22491,-0.9674 5.03556,-1.6929 4.03594,-3.1556 1.22453,-1.1286 4.11091,-3.7199 1.14955,-2.5337 1.61188,-2.3148 3.64859,-3.2016 2.28662,-1.6584 2.97385,-2.6488 1.79931,-2.1997 3.47366,-4.0884 1.18704,-0.7601 4.07343,-2.6604 3.67358,-2.1881 1.58689,-1.2093 3.63609,-3.6392 1.62437,-2.2803 3.3862,-2.5682 1.87427,-0.8408 5.26047,0.6795 2.63648,0.1613 2.62399,0.1036 0.28739,-0.1036 1.68685,-4.8485 -0.97462,-4.8485 -0.99962,-3.7775 -0.37485,-1.0711 -2.24914,-4.8485 -2.63648,-3.2361 -1.14955,-1.6124 -3.87351,-4.86 5.02306,-4.4224 0.46232,-0.4261 4.79815,-3.0864 2.52403,-1.7621 2.73644,-1.7505 5.26047,-1.5893 4.31084,-1.5087 0.94963,-0.3455 5.26047,-2.7179 2.31161,-1.7851 2.96135,-1.5087 5.26047,-1.8657 3.34871,-1.4741 1.91176,-1.025 1.23702,1.025 4.02345,3.0058 2.62399,1.8427 2.63648,1.5547 5.26047,0.9905 5.26047,-1.8888 1.74932,-0.6564 -1.74932,-1.2093 -3.94848,-3.6392 -1.31199,-2.073 -0.59977,-2.7755 0.0375,-4.8485 -0.075,-4.8485 -1.22452,-4.8485 -1.14956,-4.8485 3.01134,-3.8811 0.58727,-0.979 4.6732,-4.5605 0.43733,-0.288 4.82314,-1.9002 3.886,-2.9483 1.37447,-1.2668 4.2609,-3.5817 0.9996,-1.071 3.3487,-3.7775 1.312,-4.8485 0.5997,-0.9098 4.5608,-3.9387 -0.3499,-4.8485 -1.4869,-4.8485 -1.5244,-4.8485 1.8493,-4.8485 0.4623,-4.86 0.2999,-4.8485 0.5747,-4.8485 0.8872,-2.073 1.0996,-2.7755 1.5244,-4.8485 2.6365,-2.0154 2.0367,-2.8331 3.2237,-4.6412 0.2874,-0.2073 4.9731,-3.5817 3.886,3.5817 1.3745,1.7044 2.4116,3.1441 2.8489,2.7409 1.8742,2.1076 3.3862,1.785 5.2605,1.1287 5.2605,0.081 5.2604,0.4146 5.2605,-0.7831 4.8856,-2.6258 0.3874,-0.2649 5.2604,-0.7601 5.2605,1.025 v 0 l 5.2605,0.8407 5.2604,0.6104 5.2605,-0.8062 1.1746,-0.6449 -1.1746,-0.334 -5.2605,-1.2784 -4.5107,-3.2361 -0.7497,-0.5183 -5.2605,-0.5643 -5.2605,-1.4281 -5.2604,-0.1497 -5.273,-0.6219 -5.2605,-0.1612 -5.2604,-1.1056 -0.4749,-0.2994 -0.8371,-4.8486 0.038,-4.8485 1.087,-4.8485 0.1875,-0.9789 0.7247,-3.8811 -0.7247,-1.4856 -1.4745,-3.3629 -1.6493,-4.8485 -1.3495,-4.8485 2.2616,-4.8485 2.2117,-2.7755 1.8617,-2.073 1.9243,-4.8485 1.4744,-4.2496 0.3374,-0.5989 3.5236,-4.8485 1.3995,-2.43 1.0621,-2.4185 4.2109,-4.3188 0.6997,-0.5297 4.5607,-3.7084 0.9497,-1.1516 -0.9497,-4.8486 v 0 0 l 1.4245,-4.8485 0.9371,-4.8485 1.7868,-4.8485 1.1121,-1.6123 2.2116,-3.2362 -0.8246,-4.8485 0.1874,-4.8485 2.2991,-4.8485 1.387,-1.2207 4.6357,-3.6278 0.6247,-0.5758 3.9485,-4.2727 1.312,-1.6238 3.7611,-3.2362 1.4994,-1.9348 2.8739,-2.9137 2.3865,-1.4166 3.9485,-3.4319 1.312,-1.7621 3.0738,-3.0864 2.1867,-2.1997 2.1117,-2.6488 3.1488,-2.7295 2.8364,-2.119 2.4365,-1.716 4.8232,-3.1325 0.4373,-0.2649 5.2605,-1.6239 4.5982,1.8888 0.6622,0.2073 5.2605,2.9137 5.2605,0.1151 5.2604,-2.2112 1.2371,-1.0249 -1.2371,-1.382 -2.7739,-3.4665 -2.4865,-3.3629 -0.8372,-1.4857 -1.9118,-4.8485 1.312,-4.8485 1.437,-1.8196 2.6364,-3.0404 2.624,-4.0308 0.5873,-0.8177 4.6732,-4.8485 v 0 l 3.5111,-4.8485 1.387,-4.8485 0.3624,-0.8062 1.6993,-4.0423 2.1992,-4.8485 1.3619,-1.5432 4.1609,-3.3053 1.0996,-1.7621 2.0492,-3.0864 3.2238,-3.812 0.7497,-1.0365 2.1991,-4.8485 0.5498,-4.8601 -0.8746,-4.8485 -2.624,-2.2342 -2.4616,-2.6143 -1.5869,-4.8485 0.9497,-4.8485 -0.8497,-4.8485 1.8368,-4.8485 2.1117,-3.8811 0.4748,-0.9674 2.5865,-4.8485 2.1991,-2.6949 2.3366,-2.1536 2.9239,-2.8561 1.9368,-1.9924 2.1991,-4.86 1.1246,-1.6123 5.2604,-2.3494 2.624,-0.8868 2.6365,-3.2247 1.312,-1.6238 1.3245,-4.8485 0.5248,-4.8485 -3.1613,-3.6393 -5.2605,1.2208 -4.5107,2.4185 -0.7497,0.5412 -5.2605,1.4051 -5.2605,0.2879 -5.2604,0.8522 -1.5119,1.7621 -1.4495,4.8485 -2.3116,2.8331 -0.7247,2.0154 -4.5358,4.1805 -0.8121,0.668 -4.4483,4.86 v 0 l -5.2605,3.7199 -5.2605,0.1497 -2.474,-3.8696 -2.3366,-4.86 -0.4498,-2.4185 -0.7872,2.4185 -0.9622,4.86 1.0496,4.8485 0.6998,4.8485 v 0 l 2.0617,4.8485 -1.4745,4.8485 -0.5872,0.8753 -1.8993,3.9732 -0.9746,4.8485 -2.0742,4.8485 0.5123,4.8485 0.2874,4.8485 0.7497,4.8485 -1.8618,4.1576 -0.5873,0.7025 -4.6732,3.8696 -0.5498,0.9789 -1.9242,4.8485 -2.7864,3.6392 -0.9872,1.2093 -4.2733,4.8485 v 0 l -5.2605,3.1325 -3.7235,1.716 -1.5494,0.8983 -5.2605,2.073 -5.2605,0.668 -2.9988,1.2092 -2.2617,1.3244 -5.2604,2.8907 -5.2605,0.1958 -5.2605,-3.0289 -2.3366,-1.382 -2.9238,-1.7275 -3.6486,-3.121 -1.6119,-0.1382 -0.2124,0.1382 -3.1988,4.8485 -0.1,4.8485 0.075,4.8485 0.6623,4.8485 -0.8747,4.8485 -1.6119,2.1651 -1.7618,2.6949 -3.4986,4.8485 v 0 l -4.3109,4.8485 -0.9621,0.7486 -5.2605,4.1 v 0 l -5.2604,3.4204 -3.7486,1.4281 -1.5119,0.3685 -5.2605,0.6449 -5.2604,2.3149 -2.3866,1.5202 -2.8739,1.3244 -5.2605,0.8637 -5.2605,-1.6814 -0.6622,-0.5067 -4.5982,-4.5261 -0.6623,-0.3224 -4.5982,-1.7851 -3.0738,1.7851 0.5248,4.8485 1.0371,4.8485 1.5119,4.1575 0.2999,0.691 0.3499,4.8485 -0.6498,1.048 -5.273,2.9943 -1.3994,0.8062 1.3994,1.025 5.273,1.405 5.2605,0.3109 5.2604,1.2093 1.7494,0.8983 0.2249,4.86 -1.6494,4.8485 -0.3249,0.8753 -1.6993,3.9732 -1.312,4.8485 -1.7993,4.8485 -0.4498,0.8062 -2.5116,4.0423 -1.4369,4.8485 -1.312,1.9463 -1.8243,2.9022 -3.4487,4.123 -0.7122,0.7255 -4.5482,4.1921 -0.7123,0.6564 -3.711,4.8486 -0.8372,1.2207 -2.24914,3.6393 -3.01133,4.8485 v 0 l -2.92388,4.8485 -2.33659,1.9348 -4.86063,2.9137 -0.39984,0.2879 -5.26047,3.2938 -1.12457,1.2668 -4.1359,4.8485 v 0 l -5.26047,4.5145 -0.7872,0.334 -4.47327,2.7525 -5.26047,1.382 -1.32449,0.714 -3.94847,2.3494 -5.26047,2.0615 -2.3366,0.4376 -2.92387,1.1286 -5.26047,-0.357 -5.26047,1.9233 -2.62399,2.1536 -2.63648,2.7755 -3.64859,2.073 -1.61188,1.0826 -5.26047,3.4435 -0.96212,0.3339 -4.29834,3.4896 -1.76182,1.3589 -3.49865,3.9848 -0.76221,0.8637 0.76221,1.6124 1.36197,3.2362 -1.36197,4.8485 v 0 l -4.86063,4.8485 -0.39984,0.3455 -3.42368,4.503 -1.84929,2.2687 -2.09919,2.5798 -1.78681,4.8485 -1.37447,4.1575 -0.27489,0.691 -1.32449,4.86 -0.54979,4.8485 -0.34986,4.8485 -0.71223,4.8485 -2.04921,4.8485 v 0 0 l -5.26046,-0.6104 -5.26047,-2.453 -2.62399,-1.7851 -2.63648,-1.7851 -5.26047,-1.9693 -4.38581,-1.0941 -0.87466,-0.2534 -5.26047,-1.9002 -5.26047,-0.9098 -5.26047,-0.8177 -5.27296,-0.058 -5.26047,0.5413 -3.93598,-1.4511 -1.32449,-0.5413 -5.25797,-1.3474 -2.63148,1.8887 2.63148,2.8216 1.25202,2.0269 1.04959,4.8485 2.95636,4.3648 0.41234,0.4837 3.0988,4.8485 1.22453,4.8485 -0.68723,4.8485 1.21203,2.0845 3.01134,2.764 2.24913,1.4627 5.27296,2.0614 3.14879,1.3244 2.11168,0.645 5.26047,0.714 3.3737,3.4895 1.88677,2.8562 3.68608,2.0039 -0.39985,4.8485 0.22491,4.8485 -0.88715,4.8485 -1.12457,4.8485 -1.49942,2.4185 -1.97424,2.43 -3.28623,2.3033 -5.26047,2.5452 v 0 l -5.26047,0.9674 -3.12379,3.8811 -0.075,4.8485 0.7622,4.8485 2.43656,4.1575 0.31238,0.691 1.2995,4.86 -0.82468,4.8485 -0.7872,1.1172 -2.29911,3.7313 -1.53691,4.8486 -1.43694,2.9021 -1.49942,1.9464 -3.76105,3.4665 -1.16205,1.382 -4.09842,4.526 -0.37486,0.3225 -4.88311,3.501 -1.75432,1.3475 -3.5074,3.2361 -1.54815,1.6124 -3.09506,4.8485 -0.61851,0.8177 -3.50864,4.0308 -1.75308,2.0269 -3.07006,2.8331 -2.19166,1.7275 -5.26171,-1.7275 v 0 l -3.65984,-4.86 -1.60188,-1.7851 -3.5074,-3.0634 -1.75432,-1.4511 -4.33333,-3.3974 -0.92839,-0.5759 -5.26172,-1.8426 -2.10419,2.4185 1.79556,4.8485 0.30863,0.4491 2.92387,4.3994 1.87428,4.86 0.46357,2.4185 0.87716,2.43 0.29239,4.8485 1.61562,4.8485 0.89841,4.8485 -1.14956,4.8485 -0.57977,4.8485 -1.95425,3.1556 -1.08333,1.6929 -4.17839,4.5146 -0.38985,0.3339 -3.55613,4.8485 -1.31574,1.5202 -3.61735,3.3283 -1.64437,3.0404 -0.27114,1.8197 0.12495,4.8485 -0.64225,4.8485 -1.04085,4.8485 -0.80094,4.8485 -1.97299,4.8485 -0.65849,0.7486 -4.45204,4.0999 -0.80843,0.9674 -5.26172,2.8101 -2.63149,1.071 -2.35409,4.8485 -0.27614,2.43 -0.11746,2.4185 0.11746,1.6239 0.55354,3.2246 -0.55354,3.2362 -0.29239,1.6238 -1.92301,4.8485 -2.67021,4.8485 -0.37611,0.4377"
       vector-effect="none"
       id="path1344"
       sodipodi:nodetypes="ccccccccccccccccccccccccccccccccccccccccccccccccccccccccccccccccccccccccccccccccccccccccccccccccccccccccccccccccccccccccccccccccccccccccccccccccccccccccccccccccccccccccccccccccccccccccccccccccccccccccccccccccccccccccccccccccccccccccccccccccccccccccccccccccccccccccccccccccccccccccccccccccccccccccccccccccccccccccccccccccccccccccccccccccccccccccccccccccccccccccccccccccccccccccccccccccccccccccccccccccccccccccccccccccccccccccccccccccccccccccccccccccccccccccccccccccccccccccccccccccccccccccccccccccccccccccccccccccccccccccccccccccccccccccccccccccccccccccccccccccccc"
       style="font-style:normal;font-weight:400;font-size:54.3472px;font-family:'.AppleSystemUIFont';opacity:0.973154;fill:none;stroke:#26e4e1;stroke-width:3.69607;stroke-linecap:square;stroke-linejoin:bevel;stroke-opacity:1" />
  </g>
</svg>
