<?xml version="1.0" encoding="UTF-8" standalone="no"?>
<svg
   xmlns:dc="http://purl.org/dc/elements/1.1/"
   xmlns:cc="http://creativecommons.org/ns#"
   xmlns:rdf="http://www.w3.org/1999/02/22-rdf-syntax-ns#"
   xmlns:svg="http://www.w3.org/2000/svg"
   xmlns="http://www.w3.org/2000/svg"
   xmlns:sodipodi="http://sodipodi.sourceforge.net/DTD/sodipodi-0.dtd"
   xmlns:inkscape="http://www.inkscape.org/namespaces/inkscape"
   version="1.2"
   viewBox="0 0 2075.2423 2354.6004"
   width="175.11984mm"
   height="198.69402mm"
   id="svg1487"
   sodipodi:docname="Layer2.svg"
   inkscape:version="1.0.2 (e86c8708, 2021-01-15)">
  <sodipodi:namedview
     pagecolor="#ffffff"
     bordercolor="#666666"
     borderopacity="1"
     objecttolerance="10"
     gridtolerance="10"
     guidetolerance="10"
     inkscape:pageopacity="0"
     inkscape:pageshadow="2"
     inkscape:window-width="1348"
     inkscape:window-height="805"
     id="namedview1489"
     showgrid="false"
     fit-margin-left="5"
     fit-margin-top="5"
     fit-margin-right="5"
     fit-margin-bottom="5"
     inkscape:showpageshadow="false"
     inkscape:zoom="0.82323927"
     inkscape:cx="275.79765"
     inkscape:cy="409.30211"
     inkscape:window-x="44"
     inkscape:window-y="23"
     inkscape:window-maximized="0"
     inkscape:current-layer="layer2"
     inkscape:document-rotation="0" />
  <defs
     id="defs84">
    <clipPath
       clipPathUnits="userSpaceOnUse"
       id="clipPath2204">
      <rect
         style="opacity:0.990354;fill:none;stroke:#000000;stroke-width:3.394"
         id="rect2206"
         width="1561.3312"
         height="1930.2112"
         x="388.22952"
         y="271.944" />
    </clipPath>
  </defs>
  <defs
     id="defs107" />
  <defs
     id="defs136" />
  <metadata
     id="metadata1485">
    <rdf:RDF>
      <rdf:Description
         dc:date="2021-04-30T14:29:02"
         dc:identifier=""
         dc:format="image/svg+xml"
         dc:description=""
         dc:title="">
        <dc:creator>
          <rdf:Bag>
            <rdf:li>Dennis</rdf:li>
          </rdf:Bag>
        </dc:creator>
        <dc:publisher>
          <rdf:Bag>
            <rdf:li>QGIS 3.16.6-Hannover</rdf:li>
          </rdf:Bag>
        </dc:publisher>
        <dc:subject>
          <rdf:Bag />
        </dc:subject>
      </rdf:Description>
      <cc:Work
         rdf:about="">
        <dc:format>image/svg+xml</dc:format>
        <dc:title />
        <dc:date>2021-04-30T14:29:02</dc:date>
        <dc:identifier />
        <dc:description />
        <dc:creator>
          <cc:Agent>
            <dc:title>Dennis</dc:title>
          </cc:Agent>
        </dc:creator>
        <dc:publisher>
          <cc:Agent>
            <dc:title>QGIS 3.16.6-Hannover</dc:title>
          </cc:Agent>
        </dc:publisher>
        <dc:type
           rdf:resource="http://purl.org/dc/dcmitype/StillImage" />
      </cc:Work>
    </rdf:RDF>
  </metadata>
  <g
     inkscape:groupmode="layer"
     id="layer2"
     inkscape:label="Layer2"
     style="display:inline">
    <path
       fill-rule="evenodd"
       d="m 884.61659,2246.8996 0.11246,-0.1152 -0.11246,-0.2073 -2.62398,0.2073 2.62398,0.1152"
       vector-effect="none"
       id="path1244"
       style="font-style:normal;font-weight:400;font-size:54.3472px;font-family:'.AppleSystemUIFont';opacity:0.973154;fill:none;stroke:#cd5e81;stroke-width:3.69607;stroke-linecap:square;stroke-linejoin:bevel;stroke-opacity:1" />
    <path
       fill-rule="evenodd"
       d="m 258.48707,2278.6509 3.5074,-2.764 -3.5074,-2.43 -1.50317,2.43 1.50317,2.764"
       vector-effect="none"
       id="path1280"
       style="font-style:normal;font-weight:400;font-size:54.3472px;font-family:'.AppleSystemUIFont';opacity:0.973154;fill:none;stroke:#cd5e81;stroke-width:3.69607;stroke-linecap:square;stroke-linejoin:bevel;stroke-opacity:1" />
    <path
       fill-rule="evenodd"
       d="m 354.10766,2288.0024 v -2.4185 l -0.9109,-1.8196 -4.64321,-3.0289 -0.61851,-0.2994 -5.26172,-3.8235 -1.09583,-0.7256 -4.16589,-4.192 -1.75432,-0.668 -3.5074,-1.5317 -2.42781,1.5317 -2.8339,1.4166 -5.26172,1.4511 -5.26172,1.9923 v 0 0 l -5.26172,-0.1957 -2.63023,0.1957 -2.63149,0.1958 -5.26047,2.1076 -5.26172,1.2668 -2.02421,1.2783 -3.2375,2.2803 -5.26172,0.7832 -5.26172,-1.048 -5.26172,0.403 -5.26172,0.4837 -2.63023,1.9463 v 2.4185"
       vector-effect="none"
       id="path1304"
       style="font-style:normal;font-weight:400;font-size:54.3472px;font-family:'.AppleSystemUIFont';opacity:0.973154;fill:none;stroke:#cd5e81;stroke-width:3.69607;stroke-linecap:square;stroke-linejoin:bevel;stroke-opacity:1" />
    <path
       fill-rule="evenodd"
       d="m 845.11934,2285.5839 0.24991,-4.8485 0.34986,-4.8485 0.31238,-4.86 0.32488,-4.8485 0.73721,-4.8485 0.69973,-0.8292 5.26047,-0.7486 5.26047,1.025 1.47443,0.5528 3.78604,1.1056 2.0617,-1.1056 3.19877,-3.0865 2.54901,-1.762 2.71146,-1.6814 5.26047,-2.073 1.61187,-1.0941 -1.61187,-4.5951 -5.26047,1.3589 -5.26047,-1.0595 -1.41196,-0.5528 -3.84851,-1.3705 -3.66109,-3.478 -1.59938,-2.3724 -1.89927,-2.4761 -2.31161,-4.8485 -0.56228,-4.8485 -0.48731,-2.2918 -5.26047,-2.3149 -0.5248,-0.2418 -4.73567,-1.6815 -5.27296,1.5087 -0.5248,0.1728 -4.73567,1.405 -5.26047,0.8407 -1.52191,-2.2457 -2.87514,-4.8601 -0.86092,-1.3128 -1.57939,-3.5357 -0.96963,-4.8485 0.5248,-4.8485 2.02422,-3.0288 1.57814,-1.8197 3.67983,-1.7275 5.26047,1.3935 5.26047,-0.357 5.27296,-1.0249 3.74855,-3.1326 -2.39907,-4.8485 1.19954,-4.8485 -0.92465,-4.8485 0.5248,-4.8485 3.1113,-4.503 0.36236,-0.3455 4.78565,-4.86 0.11246,-0.1382 5.26047,-1.1632 5.26047,0.4607 3.69857,-4.0078 1.5619,-2.764 1.74932,-2.0845 3.51115,-1.8197 2.77393,-3.0288 2.48654,-1.6815 4.07342,-3.167 1.18704,-1.1056 3.3737,-3.7429 1.88677,-4.6067 0.16244,-0.2418 -0.16244,-1.6124 -0.64975,-3.2361 -4.61072,-1.7851 -3.82352,-3.0635 -1.43694,-1.7505 -1.23703,-3.098 -0.025,-4.8485 1.26202,-1.1862 4.36081,-3.6738 0.89965,-0.8868 4.61072,-3.9617 0.64975,-2.8216 0.66225,-2.0269 3.49865,-4.8485 1.09957,-0.6795 5.27297,-1.4626 5.26047,-1.405 4.3858,-1.3014 0.87467,-0.4146 5.26046,-3.4665 0.99962,-0.9674 3.99845,-4.8485 0.2624,-0.4837 3.3862,-4.3648 1.87427,-0.6795 5.26047,-1.1286 5.26047,-1.1978 3.23625,-1.8426 2.02422,-0.6219 5.26047,0.6219 5.26047,-0.9789 1.76182,-3.8696 -1.76182,-1.6239 -5.26047,-0.3224 -1.47443,-2.9022 0.42483,-4.8601 1.0496,-4.8485 v 0 l 2.11168,-4.8485 2.42407,-4.8485 0.72472,-1.071 5.27296,-0.334 5.26047,0.3455 3.67358,1.0595 1.58689,0.9674 5.26047,0.7025 4.44828,-1.6699 0.81219,-0.5412 4.43579,-4.3073 0.82468,-1.4511 1.59938,-3.3974 1.37447,-4.8485 1.84929,-4.8485 -4.4233,-4.8485 -0.39984,-2.43 -0.43733,-2.4185 -3.94848,-4.8485 -0.87466,-0.7486 -3.86101,-4.1114 3.27374,-4.8485 0.58727,-0.4837 3.94847,-4.3648 1.312,-4.8485 v 0 l 1.57439,-4.8485 2.37408,-4.8485 1.312,-2.4301 1.31199,-2.4184 0.43733,-4.8486 -1.74932,-3.2361 h -5.26047 l -3.51115,3.2361 -1.74932,0.8062 -5.26047,2.4185 -5.26047,1.6239 v 0 l -5.26047,3.6392 -2.63648,1.2093 -2.62399,1.2092 -3.94847,3.6393 -1.32449,2.43 -0.5248,2.4185 -1.08708,4.8485 0.96213,4.8485 0.64975,1.9463 1.13706,2.9022 1.0371,4.86 1.23702,4.8485 1.86178,3.2247 1.21203,1.6238 1.61188,4.8485 -2.82391,2.1191 -5.27296,2.2227 -1.312,0.5067 -3.94847,1.1632 -5.26047,2.8792 -0.91215,0.8061 -4.34832,2.3034 -2.56151,2.5451 -2.69896,3.5587 -0.97462,1.2898 -2.03672,4.8485 -2.24913,4.5146 -0.38735,0.3339 -4.87312,3.789 -1.41195,1.0595 -3.84852,2.8792 -2.36158,1.9809 -2.89888,2.764 -1.51192,2.0845 -3.74855,4.8485 v 0 l -5.26047,3.455 -5.27297,-2.5798 -5.26047,-0.4721 -4.1359,4.4454 1.01211,4.8485 -2.13668,3.9272 -0.72472,0.9213 -4.53574,1.8081 -5.26047,2.5797 -0.46233,0.4607 -2.76143,4.8485 -2.03671,2.9137 -1.68685,1.9348 -3.57362,2.1191 -3.86101,2.7294 -1.287,4.8485 1.92425,4.86 3.22376,3.4435 1.59938,1.405 0.64975,4.8485 -0.7872,4.8486 -1.46193,1.5086 -2.31161,3.3399 -2.94886,4.2381 -0.41234,0.6104 -4.84813,4.8485 v 0 l -5.26047,4.1805 -0.57478,0.668 -4.24836,4.8485 -0.43733,0.4491 -3.81103,4.3994 -1.46193,1.6929 -2.72395,3.1556 -2.24913,4.86 -0.28739,0.5067 -2.88639,4.3418 -1.27451,4.8485 -1.09957,1.2093 -5.25797,1.9232 -2.78643,1.716 -2.47529,0.7486 -5.26172,1.4165 -3.59611,2.6834 -1.66561,1.1517 -5.26172,3.0173 -0.63475,0.6795 -2.66272,4.8485 -0.24116,4.8485 -0.34362,4.8485 -0.98087,4.8485 -0.39859,3.0404 -0.54479,1.8081 0.21616,4.8601 -4.12341,4.8485 -0.80968,0.8061 -2.39158,4.0424 -0.71722,4.8485 -0.7797,4.8485 1.49692,4.8485 -0.23866,4.8485 -2.63148,4.8485 v 0 l -5.26172,3.8811 -0.97462,0.9674 -3.88225,4.8485 -0.40485,0.4031 -5.03306,4.4454 -0.22866,0.1728 -5.26172,4.6872 v 0 l -1.46068,4.8485 -1.96674,4.8485 -1.83429,2.1421"
       vector-effect="none"
       id="path1336"
       sodipodi:nodetypes="ccccccccccccccccccccccccccccccccccccccccccccccccccccccccccccccccccccccccccccccccccccccccccccccccccccccccccccccccccccccccccccccccccccccccccccccccccccccccccccccccccccccccccccccccccccccccccccccccccccccccccccccccccccccccccccccccccccccccccccccccccccccccccccccc"
       style="font-style:normal;font-weight:400;font-size:54.3472px;font-family:'.AppleSystemUIFont';opacity:0.973154;fill:none;stroke:#cd5e81;stroke-width:3.69607;stroke-linecap:square;stroke-linejoin:bevel;stroke-opacity:1" />
  </g>
</svg>
