<?xml version="1.0" encoding="UTF-8" standalone="no"?>
<svg
   xmlns:dc="http://purl.org/dc/elements/1.1/"
   xmlns:cc="http://creativecommons.org/ns#"
   xmlns:rdf="http://www.w3.org/1999/02/22-rdf-syntax-ns#"
   xmlns:svg="http://www.w3.org/2000/svg"
   xmlns="http://www.w3.org/2000/svg"
   xmlns:sodipodi="http://sodipodi.sourceforge.net/DTD/sodipodi-0.dtd"
   xmlns:inkscape="http://www.inkscape.org/namespaces/inkscape"
   version="1.2"
   viewBox="0 0 2075.2423 2354.6004"
   width="175.11984mm"
   height="198.69402mm"
   id="svg1487"
   sodipodi:docname="Layer5.svg"
   inkscape:version="1.0.2 (1.0.2+r75+1)">
  <sodipodi:namedview
     pagecolor="#ffffff"
     bordercolor="#666666"
     borderopacity="1"
     objecttolerance="10"
     gridtolerance="10"
     guidetolerance="10"
     inkscape:pageopacity="0"
     inkscape:pageshadow="2"
     inkscape:window-width="1920"
     inkscape:window-height="1043"
     id="namedview1489"
     showgrid="false"
     fit-margin-left="5"
     fit-margin-top="5"
     fit-margin-right="5"
     fit-margin-bottom="5"
     inkscape:showpageshadow="false"
     inkscape:zoom="0.82323927"
     inkscape:cx="131.85408"
     inkscape:cy="378.93427"
     inkscape:window-x="1600"
     inkscape:window-y="0"
     inkscape:window-maximized="1"
     inkscape:current-layer="layer5"
     inkscape:document-rotation="0" />
  <defs
     id="defs84">
    <clipPath
       clipPathUnits="userSpaceOnUse"
       id="clipPath2204">
      <rect
         style="opacity:0.990354;fill:none;stroke:#000000;stroke-width:3.394"
         id="rect2206"
         width="1561.3312"
         height="1930.2112"
         x="388.22952"
         y="271.944" />
    </clipPath>
  </defs>
  <defs
     id="defs107" />
  <defs
     id="defs136" />
  <metadata
     id="metadata1485">
    <rdf:RDF>
      <rdf:Description
         dc:date="2021-04-30T14:29:02"
         dc:identifier=""
         dc:format="image/svg+xml"
         dc:description=""
         dc:title="">
        <dc:creator>
          <rdf:Bag>
            <rdf:li>Dennis</rdf:li>
          </rdf:Bag>
        </dc:creator>
        <dc:publisher>
          <rdf:Bag>
            <rdf:li>QGIS 3.16.6-Hannover</rdf:li>
          </rdf:Bag>
        </dc:publisher>
        <dc:subject>
          <rdf:Bag />
        </dc:subject>
      </rdf:Description>
      <cc:Work
         rdf:about="">
        <dc:format>image/svg+xml</dc:format>
        <dc:title />
        <dc:date>2021-04-30T14:29:02</dc:date>
        <dc:identifier />
        <dc:description />
        <dc:creator>
          <cc:Agent>
            <dc:title>Dennis</dc:title>
          </cc:Agent>
        </dc:creator>
        <dc:publisher>
          <cc:Agent>
            <dc:title>QGIS 3.16.6-Hannover</dc:title>
          </cc:Agent>
        </dc:publisher>
        <dc:type
           rdf:resource="http://purl.org/dc/dcmitype/StillImage" />
      </cc:Work>
    </rdf:RDF>
  </metadata>
  <g
     inkscape:groupmode="layer"
     id="layer5"
     inkscape:label="Layer5"
     style="display:inline">
    <path
       fill-rule="evenodd"
       d="m 1310.8146,1533.893 2.6239,-4.8485 2.6365,-3.0289 1.5744,-1.8196 -1.5744,-1.8197 -5.2604,1.4742 -0.2,0.3455 -0.6747,4.8485 0.8747,4.8485"
       vector-effect="none"
       id="path836"
       style="font-style:normal;font-weight:400;font-size:54.3472px;font-family:'.AppleSystemUIFont';opacity:0.973154;fill:none;stroke:#ab75de;stroke-width:3.69607;stroke-linecap:square;stroke-linejoin:bevel;stroke-opacity:1" />
    <path
       fill-rule="evenodd"
       d="m 392.50408,2271.0269 -2.47654,2.5913 -2.47529,-2.5913 2.47529,-3.5241 2.47654,3.5241"
       vector-effect="none"
       id="path1268"
       style="font-style:normal;font-weight:400;font-size:54.3472px;font-family:'.AppleSystemUIFont';opacity:0.973154;fill:none;stroke:#ab75de;stroke-width:3.69607;stroke-linecap:square;stroke-linejoin:bevel;stroke-opacity:1" />
    <path
       fill-rule="evenodd"
       d="m 579.92423,2288.0024 v -2.4185 l 4.37831,-4.8485 0.40484,-0.7025 2.10544,-4.146 0.52604,-4.86 2.63024,-2.9022 1.61937,-1.9463 0.71973,-4.8485 -2.3391,-1.2092 -5.26172,-1.2093 -5.26172,-2.43 v 0 l -2.83265,-4.8485 -0.9259,-4.8485 -1.50317,-1.6123 -5.26172,0.4721 -5.26171,1.1402 v 0 h -5.26047 v 0 l -5.26172,-2.1536 -2.02422,-2.6949 0.40484,-4.8485 -0.29488,-4.8485 1.91426,-4.8485 v 0 l 5.26172,-3.8811 1.1683,-0.9674 -1.1683,-1.0826 -3.07007,-3.7775 2.54277,-4.8485 -4.73442,-3.9617 -5.26172,-0.5643 -1.31574,-0.3225 -3.94598,-0.9674 -5.26172,-1.1056 -5.26172,-1.0134 -5.26172,-1.7621 v 0 l -3.50739,-4.8485 -0.70223,-4.8485 0.70223,-4.8485 1.75307,-4.8485 1.75432,-3.6392 0.52605,-1.2093 2.10544,-4.8485 -0.29239,-4.8485 -2.3391,-2.7755 -1.97298,-2.0845 -2.81017,-4.8485 -0.47856,-0.9674 -2.10419,-3.8811 -1.0521,-4.8485 -2.10543,-4.8485 v 0 l -5.26172,-3.2362 -1.50317,3.2362 -0.1412,4.8485 -0.0162,4.8485 0.27614,4.8485 -0.2599,4.8485 -0.78344,4.86 -2.83391,4.8485 v 0 l -2.92262,4.8485 -2.3391,4.8485 v 4.8485 l 0.70223,4.8485 -0.70223,1.382 -2.39157,3.4665 -2.8689,2.6489 -2.63148,2.1996 -2.63024,2.43 -2.63148,2.4185 2.63148,2.4301 2.63024,2.4184 1.01211,4.8485 1.61937,2.7756 2.25413,2.0845 3.00634,2.4185 1.31574,2.43 3.94598,3.8811 1.31574,0.9674 3.94598,4.3648 0.35111,0.4837 2.51903,4.8485 0.6385,4.8485 -0.6385,4.8485 -1.5544,4.8485 -0.26365,4.8485 1.05335,4.8485 -2.10544,4.8485 v 0 l -5.26172,4.86 v 0 0 l -5.26172,-0.9789 -5.26047,-0.2418 -5.26172,-1.693 -2.63148,-1.9463 -2.63023,-1.6123 -5.26172,-1.6123 -5.26172,2.0154 -1.75432,1.2092 -3.5074,2.43 -5.26172,0.4837 -5.26172,-1.2898 -1.31574,-1.6239 -3.94598,-2.073 h -5.26171 l -5.26172,-2.073 -1.0521,-0.7025 -4.20962,-2.4185 -5.26047,-1.739 -5.26172,-0.691 -5.26172,0.691 -5.26172,-0.081 -5.26172,0.6104 -5.26171,-0.6104 -5.26172,-0.6104 -5.26172,0.9674 -1.0521,-0.9674 -3.55112,-4.8485 -0.6585,-0.9674 -3.00634,-3.8811 -2.25538,-1.1171 -5.26172,-1.716 -3.7573,-2.0154 -1.50442,-1.9348 -1.75307,-2.9137 -3.50864,-2.9137 -3.00634,-1.9348 -2.25413,-1.4626 -5.26172,-2.9828 -1.31574,-0.4031 -2.63149,-4.8485 0.30363,-4.8485 -1.61812,-4.8601 v 0 l -5.26172,-2.9021 -2.10544,-1.9464 -3.15628,-2.4184 -5.26172,1.0364 -3.50739,1.382 -1.75433,0.8177 -3.50739,-0.8177 -1.75432,-0.691 -3.94598,-4.1575 -1.31574,-1.2092 -5.26172,-1.8772 -5.26172,1.3244 -4.20838,1.762 -1.05334,0.4837 -5.26047,1.9464 -5.26172,-0.2189 -2.1929,-2.2112 -0.43858,-4.8485 2.63148,-4.8485 v 0 l 5.26172,-2.6142 5.26047,-1.1172 3.94723,-1.1171 1.31449,-0.3685 5.26172,-0.9559 5.26172,-3.5241 v -4.8485 0 l 0.43858,-4.8485 2.43156,-4.8485 1.33948,-4.8485 -0.86092,-4.86 0.15869,-4.8485 -0.15869,-4.8485 0.69848,-4.8485 0.0875,-4.8485 1.12707,-4.8485 v 0 l 2.10418,-4.8485 -0.60101,-4.8485 -0.54604,-4.8486 1.06708,-4.8485 0.43109,-4.8485 1.49067,-4.86 0.43858,-4.8485 0.87716,-3.2246 0.30989,-1.6239 v -4.8485 l -0.30989,-1.6123 -2.63023,1.6123 -2.63148,0.691 -5.26172,4.1575 v 0 l -5.26172,4.3187 -0.87716,0.5298 -4.38456,2.0269 -4.09217,2.8216 -1.16955,1.0826 -5.26047,3.7774 v 0 l -5.26172,1.9348 -5.26171,1.4511 -5.26172,-0.5643 -5.26172,-0.4031 -1.75432,2.43 -1.75308,4.8485 -1.75432,2.764 -1.75432,2.0846 -2.07295,4.8485 -0.55729,4.8485 -0.87716,3.2361 -0.43858,1.6124 -0.99587,4.8485 -3.24249,4.8485 -0.58478,0.691 -3.15628,4.1575 -2.10544,2.7755 -1.97298,2.073 -3.28874,3.4665 -1.05209,1.3935 -2.63023,4.8485 -1.57939,2.4185 -5.26172,1.2092 -3.5074,-3.6277 -1.75307,-2.0845 -1.91426,-2.764 -3.34746,-4.2496 -2.63148,-0.6104 -2.63024,-0.691 -0.43858,0.691 -0.68973,4.86 0.19992,4.8485 -0.45607,4.8485 -1.24702,4.8485 -2.63024,4.8485 v 0 l -3.50864,4.8485 -1.75308,0.691 -5.26171,1.2438 -2.63149,-1.9348 -0.17493,-4.8485 0.5048,-4.8485 2.30162,-3.0864 0.91464,-1.7621 -0.19742,-4.8485 0.15994,-4.8485 -0.62726,-4.86 0.58102,-4.8485 -0.83092,-2.073 -1.16955,-2.7755 -3.56613,-4.8485 -0.52604,-0.4837 -3.26624,-4.3648 -1.99548,-2.5337 -1.94925,-2.3148 -2.67397,-4.8485 -0.6385,-2.1537 -1.05209,-2.6948 -2.26038,-4.8486 -1.07209,-4.8485 4.38456,-4.0423 1.75432,-0.8062 3.5074,-1.9463 5.26172,-1.5893 0.83093,-1.3244 2.67646,-4.8485 1.75433,-1.1401 5.26171,-1.1402 5.26172,-1.8772 0.80969,-0.691 -0.80969,-2.4185 -0.87716,-2.43 -3.50739,-4.8485 -0.87717,-0.4376 -5.26171,-2.6834 -3.75855,-1.7275 -1.50317,-1.6123 -1.75433,-3.2362 -2.92262,-4.8485 -0.58477,-1.6239 -1.16955,-3.2246 1.16955,-1.3935 2.39158,-3.455 0.2399,-4.8485 -2.63148,-4.8601 v 0 l -3.5074,-4.8485 -1.75432,-1.9348 -3.94598,-2.9137 -1.31574,-1.6123 -1.31449,-3.2362 1.31449,-1.9348 1.57939,-2.9137 3.68233,-3.3974 1.05209,-1.4511 1.75433,-4.8485 1.97673,-4.8485 -0.10621,-4.8485 -4.67694,-4.3187 -5.26172,2.6949 -5.26172,-0.3225 -5.26172,-2.0269 -1.1683,-0.8753 -4.09341,-4.2496 -0.47732,-0.5989 -3.16503,-4.86 1.88927,-4.8485 v -4.8485 l -3.50739,-4.1575 h -5.26172 l -5.26172,1.2553 -3.50865,-1.9463 -1.75307,-1.382 -2.1929,-3.4665 -2.54277,-4.8485 -0.52605,-0.691 -3.94597,-4.1575 -0.56354,-4.8486 -0.0512,-4.8485 -0.70098,-2.43 -0.43858,-2.4185 -0.81468,-4.86 -0.20867,-4.8485 -2.04546,-4.8485 -1.75433,-4.8485 v 0 l -5.26171,-4.3072 -0.65725,-0.5413 -3.28873,-4.8485 -0.43858,-4.8485 0.87716,-4.8485 0.50106,-4.8485 -0.23116,-4.8485 -2.02422,-3.4665 -1.31574,-1.382 -3.94598,-1.9463 -2.87014,1.9463 -2.39158,2.4185 -3.7573,2.43 -1.50442,1.2092 -1.1683,-1.2092 -4.09217,-4.8485 v 0 l -5.26172,-1.9463 -5.261715,-1.8312 -2.105437,-1.0825 -3.156282,-1.6124 -5.261718,-0.4606 -5.261719,0.4606 -3.507396,-3.2362 -1.754322,-0.5988 -0.75221,0.5988 0.75221,1.6239 3.507396,3.2247 1.754322,4.86 v 0 l 5.261719,4.8485 v 0 l 5.261718,2.4185 1.753074,2.43 1.754322,4.8485 1.349479,4.8485 0.404844,0.4837 3.382444,4.3648 1.879271,2.1997 1.97299,2.6488 2.18041,4.8485 1.10832,2.43 1.50317,2.4185 3.7573,4.4109 0.5273,0.4376 2.98135,4.8485 -0.87716,4.86 -2.63149,0.691 -5.26047,2.1536 -5.26172,1.1172 -5.261715,0.6679 -1.315742,0.2188 1.315742,4.8485 v 0 l 5.261715,1.6124 5.26172,0.9213 5.26047,0.9329 3.15753,1.382 2.10419,1.2898 3.21626,3.5587 1.58814,4.8485 0.0187,4.8485 -2.03672,4.8485 -0.15494,4.8485 2.63024,3.0634 1.27076,1.7851 1.0321,4.86 2.69646,4.8485 0.2624,0.2649 4.47202,4.5836 0.7897,1.2093 3.94597,3.6392 1.31574,1.0365 3.61736,3.812 -0.83218,4.8485 -2.2004,4.8485 -0.58478,3.2362 -0.40484,1.6123 -2.22539,4.8485 -2.63148,1.6239 -3.00634,3.2246 1.7918,4.8485 1.21454,1.0481 3.61735,3.812 1.64436,2.1996 1.66186,2.6489 2.09669,4.8485 1.50317,4.1575 0.23866,0.691 1.33948,4.8485 0.62851,4.8485 0.42359,4.8485 0.23991,4.8485 0.78969,4.8485 -1.0296,4.8485 -1.46069,4.8485 -1.16955,3.2362 -0.5098,1.6238 0.5098,4.8485 v 0 0 l -0.631,4.8485 -0.055,4.8486 -0.19118,4.8485 -4.38456,2.0729 -5.26171,-0.5412 -2.53278,-1.5317 -2.72894,-1.1287 -5.26172,-1.1632 -5.26172,1.0826 -1.19579,1.2093 1.19579,2.0154 1.11707,2.8331 -1.11707,3.7659 -0.28364,1.0826 -1.31074,4.8485 1.59438,4.0423 0.43858,0.8062 2.91013,4.8485 1.91301,2.0499 5.26172,2.361 2.63148,0.4376 2.63024,0.5413 5.26171,3.2937 1.61938,1.025 3.64234,4.8485 v 0 4.8485 l 0.58478,4.8485 1.2945,4.8485 -1.87928,4.0424 -0.30988,0.8061 -2.97885,4.8485 -1.97299,2.43 -3.15753,2.4185 -2.10418,1.2899 -4.13341,3.5586 -1.12831,0.691 -5.26172,1.6354 -5.26172,2.5221 1.97299,4.8485 2.05046,4.8601 1.23827,1.9348 5.26172,-0.9674 5.26172,0.737 5.26171,2.6834 3.5074,0.4607 1.75432,0.2649 5.26172,2.4991 0.75096,2.0845 3.41493,4.8485 1.09583,0.8637 5.26172,2.8446 1.66061,1.1402 3.60111,3.3168 3.15628,1.5317 2.10544,1.382 4.38455,3.4665 0.87592,0.6449 5.26171,1.3014 3.82728,-1.9463 1.43444,-0.7601 3.94723,0.7601 1.31449,0.2879 5.26172,2.0154 5.26172,0.9329 3.50739,1.6123 1.75433,1.6238 5.26172,2.9713 0.75096,0.2534 4.51075,2.2458 3.68233,2.6027 1.57939,2.43 1.97299,2.4185 -1.97299,0.9098 -5.26172,1.5202 -3.07006,2.43 2.71895,4.8485 -2.15417,4.8485 v 2.4185"
       vector-effect="none"
       id="path1318"
       style="font-style:normal;font-weight:400;font-size:54.3472px;font-family:'.AppleSystemUIFont';opacity:0.973154;fill:none;stroke:#ab75de;stroke-width:3.69607;stroke-linecap:square;stroke-linejoin:bevel;stroke-opacity:1" />
    <path
       fill-rule="evenodd"
       d="m 876.93206,2285.5839 -1.26201,-4.8485 1.93675,-4.8485 1.74933,-0.7025 5.26046,-3.6162 1.32449,-0.5413 3.93598,-2.4185 3.94848,-2.43 1.31199,-1.2092 5.27297,-1.2093 3.14878,2.4185 2.11169,1.3935 5.26047,1.3014 5.26046,-2.0845 1.74933,-0.6104 3.51114,-1.2092 5.26047,-0.6104 5.26047,1.8196 v 0 l 1.74933,4.8485 3.51114,2.9137 2.63648,1.9463 2.62399,1.1402 5.26047,-0.4492 5.26047,3.3399 0.96213,0.8176 4.31083,2.7295 5.26047,1.4741 1.16205,0.6449 4.09842,3.0865 5.26047,-1.1517 5.26047,-1.2438 1.74932,-0.691 3.51115,-0.8061 5.26047,-0.8177 5.26047,-1.2899 5.26046,-1.405 0.7497,-0.5298 4.5108,-2.6488 5.2604,-0.1267 5.273,-2.073 v 0 l 5.2605,-0.8176 5.2604,-1.2669 4.2109,-2.7755 -4.2109,-2.764 -3.1612,-2.0845 -2.0992,-0.5067 -5.2605,-0.3455 -5.273,-0.5298 -5.2604,-1.9693 -5.2605,0.4491 -5.26046,0.3225 -5.26047,-0.3225 -5.26047,-0.4261 -5.26047,-1.1401 -0.87466,-0.3801 -4.38581,-3.4665 -2.63648,-1.382 -2.62399,-1.6123 -4.21087,-3.2362 -1.0496,-4.8485 v 0 -4.8485 l -2.11168,-4.8485 -3.14879,-3.6393 -1.51191,-1.2092 -3.76105,-1.8657 -5.26047,-1.2208 -5.26047,1.8657 -5.26047,0.7716 -5.26047,-0.092 -5.26047,-0.3455 -2.63648,0.8868 -2.62399,0.7486 -5.26047,-0.7486 v 0 l -5.26046,-0.6104 -5.26047,-0.1152 -5.26047,-3.3628 -0.54979,-0.7601 -0.18743,-4.8485 0.73722,-3.8811 0.43733,-0.979 -0.43733,-1.6123 -2.63649,-3.2362 -2.63648,-2.4184 -2.62398,-2.4301 1.57439,-4.8485 1.04959,-0.9674 5.27297,-3.8811 v 0 l 3.93598,-4.8485 -2.18666,-4.8485 -1.74932,-4.8485 v 0 0 l 1.31199,-4.8485 3.94848,-2.9137 2.62398,-1.9348 2.63649,-2.43 5.26046,-2.4185 v 0 l 3.51115,-4.86 1.74932,-2.9022 3.51115,-1.9463 1.74932,-0.8062 2.02422,-4.0423 2.57401,-4.8485 0.66224,-0.3225 5.26047,-1.7505 5.26047,-0.6565 5.26047,-0.9098 1.76182,-1.2092 -0.99962,-4.8485 -0.7622,-2.4301 -0.54979,-2.4184 -1.5494,-4.8485 0.12495,-4.8486 1.97424,-3.6392 0.88716,-1.2093 -0.88716,-1.6238 -1.49942,-3.2247 -3.76105,-4.0423 -0.74971,-0.8177 0.74971,-1.6123 1.17455,-3.2362 4.08592,-1.3014 5.26047,0.1382 5.27296,-2.6027 0.5248,-1.0826 4.73567,-4.3648 5.26047,-0.2649 5.26047,3.0519 4.88561,1.5778 0.37486,0.1958 5.26047,1.5893 5.26047,-1.7851 v 0 l 5.26047,-2.0269 5.26046,-2.8216 v 0 l 5.2605,-1.1632 5.2604,-2.7525 1.387,-0.9328 -1.387,-2.1997 -2.424,-2.6488 -2.8364,-1.4166 -5.2605,-0.7716 -4.82313,-2.6603 -0.43733,-0.6104 -1.11207,-4.2381 0.0625,-4.8485 -2.19915,-4.8485 0.19992,-4.8485 3.04883,-4.6412 0.52479,-0.2189 4.73564,-1.3128 2.7489,-3.5357 2.5116,-2.476 2.3116,-2.3725 2.9488,-2.787 2.2992,-2.0615 2.1866,-4.8485 0.7872,-0.9098 3.7985,-3.9387 1.462,-1.5202 2.6614,-3.3283 -0.7996,-4.8485 -1.8618,-3.1786 -0.8872,-1.6699 -0.7372,-4.8485 0.012,-4.8485 0.3873,-4.86 1.2246,-1.4626 2.7364,-3.3859 0.5123,-4.8485 1.7868,-4.8485 0.2249,-0.2995 4.6358,-4.549 0.6247,-0.668 0.8372,0.668 4.4233,2.0845 5.2605,1.8887 1.4494,0.8753 3.811,2.3494 5.2605,0.9904 5.2605,1.5087 v 0 l 5.2604,2.4876 5.2605,0.8983 4.6482,-3.3859 0.6248,-0.5643 5.2604,-1.0135 5.2605,0.2879 5.2605,-0.6449 5.2604,0.2879 4.0485,1.6469 1.212,0.6334 5.2605,0.4376 5.2604,1.739 5.2605,-0.6334 5.2605,1.5432 4.7856,1.1287 0.4749,0.1612 0.4123,-0.1612 4.8606,-1.3244 5.2605,-0.023 5.2605,0.1958 5.2604,-0.081 5.2605,-0.5874 3.4362,-3.0288 -3.4362,-4.2727 -0.7247,-0.5758 -4.5358,-4.6643 -0.5872,-0.1842 -4.6732,-1.0481 -5.2605,-0.4837 -5.2605,-1.9347 -5.2729,-1.0596 -5.2605,0.5759 -1.7493,-0.8983 -3.5112,-2.6143 -3.4986,-2.2342 -1.7619,-0.7832 -5.2604,-0.1842 -5.2605,-2.8101 -1.0496,-1.0711 -1.312,-4.8485 -2.8989,-2.5451 -3.6236,2.5451 -1.6368,1.2093 -5.2605,0.058 -5.2605,1.025 -5.2604,0.4721 -5.273,-2.3263 -0.3499,-0.4377 -0.4498,-4.8485 -1.2245,-4.86 -0.8122,-4.8485 -1.387,-4.8485 0.025,-4.8485 3.2238,-4.8485 0.9746,-1.762 1.6744,-3.0865 2.1366,-4.8485 1.462,-1.8657 2.549,-2.9828 2.7114,-4.5836 0.1375,-0.2649 3.5611,-4.8485 1.5619,-0.9789 5.2605,-2.0615 2.624,-1.8081 -0.2624,-4.86 -0.088,-4.8486 0.8497,-4.8485 2.1366,-3.3052 1.412,-1.5433 3.8485,-3.835 0.9371,-1.0135 -0.9371,-2.6949 -0.6997,-2.1536 0.6997,-3.8811 0.2124,-0.9674 1.2246,-4.8485 3.8235,-4.3072 0.4373,-0.5413 4.8231,-4.2727 1.5869,-0.5758 3.6736,-2.8331 2.1992,-2.0154 3.0613,-2.0039 2.0242,-2.8561 3.2363,-3.3629 1.8492,-1.4856 3.4237,-3.3168 1.9618,-1.5317 3.2987,-2.6949 3.4986,-2.1536 1.7619,-0.9214 5.2604,-1.048 5.2605,0.7947 5.2605,-0.5874 5.2604,-0.2303 5.2605,-2.6028 5.2605,0.3916 5.2604,1.3014 2.8739,-1.9463 -2.8739,-3.8811 -0.5248,-0.9674 -1.9617,-4.8485 -2.7739,-3.3399 -1.1746,-1.5086 -4.0859,-4.6988 -0.1874,-0.1498 0.1874,-1.6238 0.5873,-3.2247 3.7985,-4.8485 0.8747,-1.4626 2.1741,-3.3974 2.4366,-4.8485 0.6497,-0.9674 2.6365,-3.8811 1.6619,-4.8485 0.9621,-2.1997 1.7618,-2.6488 3.5112,-3.2362 1.9617,-1.6123 3.2987,-2.43 1.6369,-2.4185 2.1492,-4.8485 1.4744,-2.0039 2.624,-2.8446 2.6365,-2.43 2.0242,-2.4185 1.0121,-4.8485 0.3249,-4.8601 -0.2749,-4.8485 0.4873,-4.8485 -1.9992,-4.8485 -0.8622,-4.8485 4.5482,-4.3878 0.3874,-0.4607 -0.3874,-0.9674 -2.0991,-3.8811 -0.1,-4.8485 2.1991,-1.6238 5.2605,-1.5202 5.2605,-0.8983 5.2605,-0.8062 v 0 l 5.2604,-2.0039 5.2605,-1.8772 1.1121,-0.9674 4.1609,-4.8485 v 0 l 5.2604,-0.7025 0.8747,0.7025 3.2113,4.8485 1.1745,1.382 4.1484,3.4665 1.1121,0.8062 3.5111,4.0423 1.7493,1.6699 1.1621,-1.6699 0.1,-4.8485 -1.262,-2.2457 -1.4744,-2.6028 1.4744,-3.3974 0.5123,-1.4511 -0.5123,-0.668 -5.2604,-2.3033 -1.2745,-1.8887 1.0371,-4.8485 0.2374,-0.4377 3.761,-4.4108 1.4994,-3.2247 0.6998,-1.6238 2.6864,-4.8485 0.8247,-4.8485 1.0496,-1.6124 2.0992,-3.2361 2.549,-4.8486 0.6123,-1.3935 1.6493,-3.455 2.3741,-4.8485 1.237,-2.1651 1.462,-2.6834 1.9617,-4.86 1.8368,-1.9924 2.5115,-2.8561 1.2496,-4.8485 -1.2995,-4.8485 1.4869,-4.8485 1.312,-1.4972 2.3741,-3.3513 2.8864,-3.5586 1.7618,-1.2899 3.5111,-1.9463 5.2605,-1.739 5.2605,-0.4377 1.9742,-0.7255 3.2862,-1.5202 5.2605,-0.5067 3.3487,-2.8216 1.9118,-1.7621 5.2604,-1.8772 5.2605,-0.4722 0.8122,-0.737 -0.8122,-2.43 -0.9496,-2.4185 -4.3109,-4.3648 -5.2604,0.5528 -5.2605,3.0404 -5.2605,-1.1747 -5.2604,-2.9138 v 0 -4.8485 0 l 0.7996,-4.8485 1.0746,-4.8485 0.9871,-4.8485 -1.287,-4.8485 -1.5743,-1.3244 -3.5112,-3.5241 1.0496,-4.8485 2.4616,-2.8331 1.087,-2.0154 0.15,-4.8485 -1.237,-4.86 -5.2605,4.4339 -0.4998,0.4261 -2.7115,4.8485 0.3999,4.8485 -2.4491,4.2381 -0.2374,0.6104 -3.0613,4.8485 -1.9742,3.6393 -0.4499,1.2092 -2.0367,4.8485 -1.7868,4.8485 -0.9871,2.43 -5.2605,1.3014 -5.2605,-3.1901 -1.8243,4.3072 1.1996,4.8485 0.6247,2.9138 0.6998,1.9463 -0.6998,1.6123 -1.3994,3.2362 -3.861,3.5471 -1.0496,1.3014 -0.3374,4.8485 -2.7614,4.8485 -1.1121,2.4185 -0.9121,2.43 -4.3484,3.2938 -1.6368,1.5547 -3.6236,4.8485 v 0 l -4.2484,4.8485 -1.0121,1.1632 -5.1105,3.6853 -0.15,0.1152 -5.2604,4.1575 -5.273,0.5758 v 0 l -5.2605,1.2668 -5.2604,2.0846 -2.4866,1.5086 -2.7739,2.1076 -5.2605,1.9233 -1.6618,0.8176 -3.5987,2.6258 -4.1359,2.2227 -1.1245,1.2093 -1.5744,3.6392 -3.6861,3.0865 -2.3366,1.7621 -2.9239,1.428 -5.2604,0.1497 -5.273,2.6489 -3.1488,0.6219 -2.1117,0.9674 -5.2604,3.1901 -0.4998,0.691 -1.312,4.8485 -0.9372,4.8485 0.2749,4.8485 -2.2116,4.8485 -0.5748,0.4491 -0.6497,-0.4491 -4.6108,-3.8696 -0.5747,-0.9789 -1.5869,-4.8485 -3.0988,-4.2151 -1.437,-0.6334 -3.8235,-1.6815 -5.2605,-0.3109 -4.3858,-2.8561 -0.8746,-0.691 -4.5108,-4.1575 -0.7497,-1.382 -1.0621,1.382 -0.2624,4.8485 1.3245,1.0365 2.8864,3.812 2.3741,1.5662 5.2604,2.2112 0.1999,1.0711 1.337,4.8485 -0.05,4.8485 0.5247,4.86 3.0989,4.8485 0.1499,0.4837 0.6872,4.3648 -0.2124,4.8485 -0.4748,1.1056 -2.5615,3.7429 -2.699,4.5952 -0.1749,0.2533 -2.8989,4.8485 -1.2495,4.8485 v 4.8485 l -0.9371,2.6949 -1.0496,2.1536 -2.5366,4.8485 -1.5244,4.8601 -0.1499,0.5297 -1.9118,4.3188 -3.3487,4.2381 -0.4123,0.6104 -1.9118,4.8485 -2.9488,3.1786 -5.2605,0.7716 -2.9989,0.8983 -2.2616,0.691 -5.2605,1.0826 -5.2604,1.5892 -5.2605,-0.1266 -5.2605,-1.3705 -5.2604,0.1727 -5.2605,0.6565 -3.4362,2.1536 -1.8243,1.8772 -2.524,2.9713 -2.7364,3.5356 -1.0621,1.3129 -3.4362,4.8485 -0.7747,1.5202 -1.4744,3.3283 -3.7861,4.2497 -0.3998,0.5988 -3.986,4.86 -0.8746,1.2093 -5.2605,3.6392 v 0 l -5.2605,4.5261 -2.0992,0.3224 -3.1612,0.9329 -5.2605,2.9483 -5.2605,-0.1728 -5.2605,-2.7064 -1.3244,-1.002 -3.936,-1.5892 -5.2605,-2.4876 -3.0113,-0.7717 -2.2617,-0.1612 -5.2604,-0.7716 -5.2605,-1.4972 -5.26043,0.4031 -5.26047,-0.1036 -5.26047,-1.8888 -5.26047,-0.8292 v 0 l -5.26047,-1.7966 -5.26047,-2.2918 -1.32449,-0.7716 -3.93598,-2.4185 -4.31083,-2.43 -0.94964,-0.5067 -5.27296,-0.2419 -5.26047,0.011 -2.99884,0.7371 2.99884,1.2208 4.86062,3.6277 0.39985,0.2649 4.73567,4.5951 0.53729,0.691 2.73645,4.1575 2.52402,2.4185 3.39869,2.43 1.86178,1.1632 5.26047,1.5778 4.38581,2.1076 0.87466,0.9673 4.21087,3.8812 1.0496,0.9674 3.51114,3.8811 1.08708,4.8485 -2.34909,4.8485 -2.24913,2.43 -2.63648,2.4185 -2.62399,1.6238 -2.87389,3.2247 1.69934,4.8485 1.17455,0.5413 4.43579,4.3187 0.82468,1.8081 2.92387,3.0404 2.3366,0.9674 5.26047,0.9674 5.26043,1.8312 2.6365,1.0825 0.8746,4.8485 -0.5497,4.8485 0.2998,4.8485 0.15,4.8485 -3.4112,3.812 -1.212,1.0365 -4.04843,2.6949 -1.74933,2.1536 -3.51114,4.8485 v 0 l -3.36121,4.8486 -1.89926,2.5682 -1.91176,2.2918 -3.1238,4.8485 -0.22491,0.2418 -2.77393,4.6067 -2.48654,3.9272 -0.31238,0.9213 -2.76143,4.8485 -2.18666,2.8446 -1.61188,2.0039 -3.64859,2.43 -5.26047,0.8407 -2.67397,1.5778 -2.59899,1.9463 -3.58612,2.9022 -1.67435,1.1517 -5.26047,0.2879 -5.26047,0.6219 -5.26047,0.5182 -4.1484,2.2688 -1.11207,0.9789 -3.71106,3.8696 -1.54941,1.2784 -5.26047,3.2477 -0.39984,0.3224 -4.86062,2.8792 -4.17339,1.9808 -1.08708,0.9329 -5.26047,3.812 -0.12495,0.1036 -3.3862,4.8485 -1.76182,4.4224 -0.28739,0.4262 -4.68569,4.8485 -0.28739,0.2879 -2.04921,4.5606 -3.21126,3.7889 -0.62475,1.0596 -1.72434,4.8485 -2.91137,3.5125 -1.312,1.336 -1.31199,4.8485 -0.76221,4.86 -1.87427,1.9348 -5.26047,0.5758 -5.26047,-0.8637 -3.886,-1.6469 -1.37447,-0.7486 -5.26047,-1.6814 -5.26047,-2.1306 -1.32449,-0.2994 -3.93598,-0.6104 -0.93714,0.6104 -4.33582,2.0039 -5.26047,-0.023 -3.98596,-1.9808 -1.27451,-0.7141 -5.25797,-0.8637 -5.26172,-1.6814 -5.26172,-0.9789 -3.18377,4.2381 -0.07,4.86 1.57939,4.8485 1.67435,3.5702 0.641,1.2783 1.67311,4.8485 1.63187,4.8485 1.31574,3.3283 0.54729,1.5202 0.22616,4.8485 1.71059,4.8485 2.77768,3.8466 0.55853,1.0019 2.0717,4.8485 2.17791,4.8485 0.44983,0.979 2.26163,3.8811 2.77393,4.8485 0.22491,0.2764 2.63648,-0.2764 2.62399,-0.311 0.38735,0.311 4.88561,3.144 1.59938,1.7045 0.89966,4.8485 -1.13706,4.8485 -1.36198,0.8292 -5.27296,1.3705 -5.26047,1.5432 -1.0496,1.1056 0.43733,4.8485 0.61227,4.0423 0.11245,0.8062 1.5744,4.8485 0.39984,4.8485 1.77432,4.8485 1.39946,4.86 v 0 0 l -3.3862,4.8485 -1.87427,2.8677 -1.69935,1.9808 -3.56112,4.8486 v 0 l -3.18127,4.8485 -2.0767,2.2687 -2.9826,2.5798 -2.27912,2.3378 -2.63148,2.5107 -2.63024,2.2687 -2.90388,2.5798 -2.35784,4.8485 v 0 l -4.09217,4.8485 -1.16955,1.1401 -3.82727,-1.1401 -1.43444,-1.3129 -1.5594,-3.5356 -3.70232,-4.0078 -1.61938,-0.8407 -3.64234,-2.5682 -2.63024,-2.2803 -2.63148,-2.4185 -5.26172,-1.6699 -5.26172,-0.7601 v 0 l -5.26172,-3.2362 -1.75307,-1.6123 -2.75643,-4.8485 -0.75221,-0.691 -0.75096,0.691 -4.50951,1.7044 -5.26172,-0.9789 -1.57939,-0.7255 -3.68233,-2.0039 -5.26172,-2.8447 v 0 l -5.26172,-1.9463 -3.82727,1.9463 3.82727,4.8486 v 0 l 2.49279,4.8485 2.33035,4.8485 0.43858,0.3685 5.26172,3.9387 0.28364,0.5413 4.22587,4.8485 0.42234,4.8485 0.32987,0.4491 5.26172,1.8542 5.26047,0.5643 4.30583,1.9809 0.95588,0.8868 2.78643,3.9617 2.47529,2.43 1.13831,2.43 1.0546,4.8485 -0.37111,4.8485 1.68685,4.8485 1.75307,3.4665 0.21992,1.382 0.54604,4.8485 0.08,4.8485 -0.84592,1.0365 -3.61735,3.812 -1.64437,1.4626 -4.00345,3.3859 -1.25827,1.5318 -3.94597,3.3167 -1.31574,2.9829 -2.02297,1.8656 0.6385,4.8601 -2.17041,4.8485 -0.96963,4.8485 -0.5123,4.8485 -0.22366,1.9348 -1.31575,2.9137 -3.94597,3.9617 -2.10544,0.8868 -3.15628,0.6564 -5.26172,1.7736 -5.26172,1.7275 -0.75221,0.691 0.75221,4.8485 v 0 l 0.98587,4.8485 -0.15494,4.8485 -0.636,4.8485 -0.19493,1.6239 -1.16955,3.2361 -3.04007,4.8485 -1.0521,2.4185 -1.75432,2.43"
       vector-effect="none"
       id="path1348"
       sodipodi:nodetypes="ccccccccccccccccccccccccccccccccccccccccccccccccccccccccccccccccccccccccccccccccccccccccccccccccccccccccccccccccccccccccccccccccccccccccccccccccccccccccccccccccccccccccccccccccccccccccccccccccccccccccccccccccccccccccccccccccccccccccccccccccccccccccccccccccccccccccccccccccccccccccccccccccccccccccccccccccccccccccccccccccccccccccccccccccccccccccccccccccccccccccccccccccccccccccccccccccccccccccccccccccccccccccccccccccccccccccccccccccccccccccccccccccccccccccccccccccccccccccccccccccccccccccccccccccccccccccccccccccccccccccccccccccccccccccccccccccccccccccccccccccccccccccccccccccccccccccccccccccccccccccccccccccccccccccccccccccccccccccccccccccccccccccccccccccccccccccccccccccccccccccccccccccccccccccccccccccccccccccccccccccccccccccccccccccccccccccccccccccccccccccccccccccccccccccccccccccccccccccccccccc"
       style="font-style:normal;font-weight:400;font-size:54.3472px;font-family:'.AppleSystemUIFont';opacity:0.973154;fill:none;stroke:#ab75de;stroke-width:3.69607;stroke-linecap:square;stroke-linejoin:bevel;stroke-opacity:1" />
    <path
       fill-rule="evenodd"
       d="m 1947.4688,2286.7932 2.6239,-1.2093 -0.3748,-4.8485 -2.2491,-1.2207 -4.7357,-3.6278 -0.5248,-0.8176 -0.3499,0.8176 -1.7618,4.8485 -3.1488,4.3648 -0.5873,0.4837 -4.6731,2.4185"
       vector-effect="none"
       id="path1430"
       sodipodi:nodetypes="ccccccccccc"
       style="font-style:normal;font-weight:400;font-size:54.3472px;font-family:'.AppleSystemUIFont';opacity:0.973154;fill:none;stroke:#ab75de;stroke-width:3.69607;stroke-linecap:square;stroke-linejoin:bevel;stroke-opacity:1" />
  </g>
</svg>
