<?xml version="1.0" encoding="UTF-8" standalone="no"?>
<svg
   xmlns:dc="http://purl.org/dc/elements/1.1/"
   xmlns:cc="http://creativecommons.org/ns#"
   xmlns:rdf="http://www.w3.org/1999/02/22-rdf-syntax-ns#"
   xmlns:svg="http://www.w3.org/2000/svg"
   xmlns="http://www.w3.org/2000/svg"
   xmlns:sodipodi="http://sodipodi.sourceforge.net/DTD/sodipodi-0.dtd"
   xmlns:inkscape="http://www.inkscape.org/namespaces/inkscape"
   version="1.2"
   viewBox="0 0 2075.2423 2354.6004"
   width="175.11984mm"
   height="198.69402mm"
   id="svg1487"
   sodipodi:docname="Layer1.2.svg"
   inkscape:version="1.0.2 (e86c8708, 2021-01-15)">
  <sodipodi:namedview
     pagecolor="#ffffff"
     bordercolor="#666666"
     borderopacity="1"
     objecttolerance="10"
     gridtolerance="10"
     guidetolerance="10"
     inkscape:pageopacity="0"
     inkscape:pageshadow="2"
     inkscape:window-width="1348"
     inkscape:window-height="805"
     id="namedview1489"
     showgrid="false"
     fit-margin-left="5"
     fit-margin-top="5"
     fit-margin-right="5"
     fit-margin-bottom="5"
     inkscape:showpageshadow="false"
     inkscape:zoom="0.82323927"
     inkscape:cx="289.1595"
     inkscape:cy="378.93427"
     inkscape:window-x="44"
     inkscape:window-y="23"
     inkscape:window-maximized="0"
     inkscape:current-layer="g1334"
     inkscape:document-rotation="0" />
  <defs
     id="defs84">
    <clipPath
       clipPathUnits="userSpaceOnUse"
       id="clipPath2204">
      <rect
         style="opacity:0.990354;fill:none;stroke:#000000;stroke-width:3.394"
         id="rect2206"
         width="1561.3312"
         height="1930.2112"
         x="388.22952"
         y="271.944" />
    </clipPath>
  </defs>
  <defs
     id="defs107" />
  <defs
     id="defs136" />
  <metadata
     id="metadata1485">
    <rdf:RDF>
      <rdf:Description
         dc:date="2021-04-30T14:29:02"
         dc:identifier=""
         dc:format="image/svg+xml"
         dc:description=""
         dc:title="">
        <dc:creator>
          <rdf:Bag>
            <rdf:li>Dennis</rdf:li>
          </rdf:Bag>
        </dc:creator>
        <dc:publisher>
          <rdf:Bag>
            <rdf:li>QGIS 3.16.6-Hannover</rdf:li>
          </rdf:Bag>
        </dc:publisher>
        <dc:subject>
          <rdf:Bag />
        </dc:subject>
      </rdf:Description>
      <cc:Work
         rdf:about="">
        <dc:format>image/svg+xml</dc:format>
        <dc:title></dc:title>
        <dc:date>2021-04-30T14:29:02</dc:date>
        <dc:identifier />
        <dc:description />
        <dc:creator>
          <cc:Agent>
            <dc:title>Dennis</dc:title>
          </cc:Agent>
        </dc:creator>
        <dc:publisher>
          <cc:Agent>
            <dc:title>QGIS 3.16.6-Hannover</dc:title>
          </cc:Agent>
        </dc:publisher>
        <dc:type
           rdf:resource="http://purl.org/dc/dcmitype/StillImage" />
      </cc:Work>
    </rdf:RDF>
  </metadata>
  <g
     inkscape:groupmode="layer"
     id="layer1"
     inkscape:label="Layer1"
     style="display:inline">
    <g
       stroke="#dde244"
       stroke-linecap="square"
       font-weight="400"
       font-size="54.3472px"
       fill="none"
       stroke-opacity="1"
       font-family="'.AppleSystemUIFont'"
       stroke-width="3.0811"
       stroke-linejoin="bevel"
       transform="matrix(1.2495176,0,0,1.1516638,-423.42841,-250.51794)"
       font-style="normal"
       id="g1134"
       style="display:inline;opacity:0.973154">
      <path
         fill-rule="evenodd"
         d="m 1042.63,2046.84 0.35,-0.53 -0.35,-1.4 -0.47,1.4 0.47,0.53"
         vector-effect="none"
         id="path1132" />
    </g>
    <g
       stroke="#dde244"
       stroke-linecap="square"
       font-weight="400"
       font-size="54.3472px"
       fill="none"
       stroke-opacity="1"
       font-family="'.AppleSystemUIFont'"
       stroke-width="3.0811"
       stroke-linejoin="bevel"
       transform="matrix(1.2495176,0,0,1.1516638,-423.42841,-250.51794)"
       font-style="normal"
       id="g1148"
       style="display:inline;opacity:0.973154">
      <path
         fill-rule="evenodd"
         d="m 1038.42,2051.13 0.53,-0.61 -0.53,-0.46 -1.4,0.46 1.4,0.61"
         vector-effect="none"
         id="path1144" />
      <path
         fill-rule="evenodd"
         d="m 1034.21,2055.06 0.6,-0.32 -0.6,-1.41 -0.47,1.41 0.47,0.32"
         vector-effect="none"
         id="path1146" />
    </g>
    <g
       stroke="#dde244"
       stroke-linecap="square"
       font-weight="400"
       font-size="54.3472px"
       fill="none"
       stroke-opacity="1"
       font-family="'.AppleSystemUIFont'"
       stroke-width="3.0811"
       stroke-linejoin="bevel"
       transform="matrix(1.2495176,0,0,1.1516638,-423.42841,-250.51794)"
       font-style="normal"
       id="g1164"
       style="display:inline;opacity:0.973154">
      <path
         fill-rule="evenodd"
         d="m 1042.63,2075.79 2.3,-4.21 -1.89,-4.21 -0.41,-0.38 -3.77,-3.83 -0.44,-1.81 -0.74,1.81 0.74,1.94 2.46,2.27 -0.35,4.21 2.1,4.21"
         vector-effect="none"
         id="path1154" />
      <path
         fill-rule="evenodd"
         d="m 1034.21,2081.9 3.47,-1.9 0.74,-0.7 4.21,-3.51 -4.21,-2.34 -4.21,2.08 -0.29,0.26 -3.92,2.47 -2.29,1.74 2.29,3.81 4.21,-1.91"
         vector-effect="none"
         id="path1156" />
      <path
         fill-rule="evenodd"
         d="m 1025.79,2088.71 0.37,-0.29 3.4,-4.21 -3.77,-2.17 -1.99,2.17 -2.22,2.11 -2.29,2.1 2.29,1.78 4.21,-1.49"
         vector-effect="none"
         id="path1158" />
      <path
         fill-rule="evenodd"
         d="m 1017.37,2094.99 1.77,-2.36 -1.77,-2.28 -2,2.28 2,2.36"
         vector-effect="none"
         id="path1160" />
      <path
         fill-rule="evenodd"
         d="m 1013.16,2100.79 2.1,-3.95 -2.1,-1.75 -1.35,1.75 1.35,3.95"
         vector-effect="none"
         id="path1162" />
    </g>
    <g
       stroke="#dde244"
       stroke-linecap="square"
       font-weight="400"
       font-size="54.3472px"
       fill="none"
       stroke-opacity="1"
       font-family="'.AppleSystemUIFont'"
       stroke-width="3.0811"
       stroke-linejoin="bevel"
       transform="matrix(1.2495176,0,0,1.1516638,-423.42841,-250.51794)"
       font-style="normal"
       id="g1176"
       style="display:inline;opacity:0.973154">
      <path
         fill-rule="evenodd"
         d="m 1008.94,2108.54 0.61,-3.27 3.22,-4.21 -3.83,-1.01 -0.56,1.01 -0.33,4.21 0.89,3.27"
         vector-effect="none"
         id="path1174" />
    </g>
    <g
       stroke="#dde244"
       stroke-linecap="square"
       font-weight="400"
       font-size="54.3472px"
       fill="none"
       stroke-opacity="1"
       font-family="'.AppleSystemUIFont'"
       stroke-width="3.0811"
       stroke-linejoin="bevel"
       transform="matrix(1.2495176,0,0,1.1516638,-423.42841,-250.51794)"
       font-style="normal"
       id="g1242"
       style="display:inline;opacity:0.973154">
      <path
         fill-rule="evenodd"
         d="m 992.748,2160.01 -0.647,3.37 -0.527,-3.37 0.527,-0.41 0.647,0.41"
         vector-effect="none"
         id="path1240" />
    </g>
    <g
       stroke="#dde244"
       stroke-linecap="square"
       font-weight="400"
       font-size="54.3472px"
       fill="none"
       stroke-opacity="1"
       font-family="'.AppleSystemUIFont'"
       stroke-width="3.0811"
       stroke-linejoin="bevel"
       transform="matrix(1.2495176,0,0,1.1516638,-423.42841,-250.51794)"
       font-style="normal"
       id="g1334"
       style="display:inline;opacity:0.973154"
       inkscape:groupmode="layer">
      <path
         fill-rule="evenodd"
         d="m 1010.23,2202.12 1.42,-4.21 0.15,-4.21 0.22,-4.22 -0.49,-4.21 -1.53,-4.21 -1.06,-3.79 -0.12,-0.42 -1.51,-4.21 1.63,-2.1 4.22,-0.09 4.21,1.54 1.87,0.65 2.34,0.66 4.21,2.22 4.21,-0.65 2.53,-2.23 -2.53,-0.76 -4.21,-2.12 -0.94,-1.33 -3.27,-4.21 v 0 l -4.21,-2.46 -1.92,-1.75 -2.29,-1.27 -4.22,-1.89 -4.21,0.26 -3.24,-1.31 -0.97,-0.32 -4.208,-1.55 -0.54,-2.34 -0.747,-4.21 -1.967,-4.22 -0.957,-3.32 -0.468,-0.89 -1.806,-4.21 -0.433,-4.21 1.144,-4.21 1.563,-2.25 2.477,-1.96 1.734,-1.25 4.208,-0.96 4.21,-0.55 1.41,-1.45 2.42,-4.21 -3.83,-3.66 -2.4,3.66 -1.81,1.8 -4.208,0.56 -4.211,0.72 -2.509,1.13 -1.702,1.51 -4.211,2.65 -0.078,0.05 -2.569,4.21 0.401,4.21 -0.562,4.21 -1.403,3.95 -0.064,0.26 0.064,0.18 2.69,4.03 1.521,2.89 0.601,1.33 -0.601,2.1 -1.099,2.11 -3.112,3.76 -0.248,0.45 -2.315,4.21 -0.273,4.21 1.728,4.21 1.108,2.01 4.211,2.2 v 0 l 4.211,2.01 1.494,2.2 -0.091,4.21 -1.403,2.25 -1.404,1.96 -2.807,1.1 -2.808,-1.1 -1.403,-0.75 -4.211,-3.05 -4.211,0.88 -4.211,1.91 -2.105,1.01 -2.106,1.1 -2.863,3.11 -1.348,2.18 -3.158,2.04 -1.053,1.5 -0.702,2.71 -1.918,4.21"
         vector-effect="none"
         id="path1332"
         sodipodi:nodetypes="cccccccccccccccccccccccccccccccccccccccccccccccccccccccccccccccccccccccccccccccccccccccccccc" />
    </g>
  </g>
</svg>
