<?xml version="1.0" encoding="UTF-8" standalone="no"?>
<svg
   xmlns:dc="http://purl.org/dc/elements/1.1/"
   xmlns:cc="http://creativecommons.org/ns#"
   xmlns:rdf="http://www.w3.org/1999/02/22-rdf-syntax-ns#"
   xmlns:svg="http://www.w3.org/2000/svg"
   xmlns="http://www.w3.org/2000/svg"
   xmlns:sodipodi="http://sodipodi.sourceforge.net/DTD/sodipodi-0.dtd"
   xmlns:inkscape="http://www.inkscape.org/namespaces/inkscape"
   version="1.2"
   viewBox="0 0 2075.2423 2354.6004"
   width="175.11984mm"
   height="198.69402mm"
   id="svg1487"
   sodipodi:docname="Layer3.svg"
   inkscape:version="1.0.2 (1.0.2+r75+1)">
  <sodipodi:namedview
     pagecolor="#ffffff"
     bordercolor="#666666"
     borderopacity="1"
     objecttolerance="10"
     gridtolerance="10"
     guidetolerance="10"
     inkscape:pageopacity="0"
     inkscape:pageshadow="2"
     inkscape:window-width="1523"
     inkscape:window-height="908"
     id="namedview1489"
     showgrid="false"
     fit-margin-left="5"
     fit-margin-top="5"
     fit-margin-right="5"
     fit-margin-bottom="5"
     inkscape:showpageshadow="false"
     inkscape:zoom="0.82323927"
     inkscape:cx="35.284342"
     inkscape:cy="378.93427"
     inkscape:window-x="1716"
     inkscape:window-y="36"
     inkscape:window-maximized="0"
     inkscape:current-layer="layer3"
     inkscape:document-rotation="0" />
  <defs
     id="defs84">
    <clipPath
       clipPathUnits="userSpaceOnUse"
       id="clipPath2204">
      <rect
         style="opacity:0.990354;fill:none;stroke:#000000;stroke-width:3.394"
         id="rect2206"
         width="1561.3312"
         height="1930.2112"
         x="388.22952"
         y="271.944" />
    </clipPath>
  </defs>
  <defs
     id="defs107" />
  <defs
     id="defs136" />
  <metadata
     id="metadata1485">
    <rdf:RDF>
      <rdf:Description
         dc:date="2021-04-30T14:29:02"
         dc:identifier=""
         dc:format="image/svg+xml"
         dc:description=""
         dc:title="">
        <dc:creator>
          <rdf:Bag>
            <rdf:li>Dennis</rdf:li>
          </rdf:Bag>
        </dc:creator>
        <dc:publisher>
          <rdf:Bag>
            <rdf:li>QGIS 3.16.6-Hannover</rdf:li>
          </rdf:Bag>
        </dc:publisher>
        <dc:subject>
          <rdf:Bag />
        </dc:subject>
      </rdf:Description>
      <cc:Work
         rdf:about="">
        <dc:format>image/svg+xml</dc:format>
        <dc:title />
        <dc:date>2021-04-30T14:29:02</dc:date>
        <dc:identifier />
        <dc:description />
        <dc:creator>
          <cc:Agent>
            <dc:title>Dennis</dc:title>
          </cc:Agent>
        </dc:creator>
        <dc:publisher>
          <cc:Agent>
            <dc:title>QGIS 3.16.6-Hannover</dc:title>
          </cc:Agent>
        </dc:publisher>
        <dc:type
           rdf:resource="http://purl.org/dc/dcmitype/StillImage" />
      </cc:Work>
    </rdf:RDF>
  </metadata>
  <g
     inkscape:groupmode="layer"
     id="layer3"
     inkscape:label="Layer3"
     style="display:inline">
    <path
       fill-rule="evenodd"
       d="m 179.56254,2179.8612 0.30988,-0.9674 -0.30988,-1.2208 -0.43858,1.2208 0.43858,0.9674"
       vector-effect="none"
       id="path1178"
       style="font-style:normal;font-weight:400;font-size:54.3472px;font-family:'.AppleSystemUIFont';opacity:0.973154;fill:none;stroke:#42efa7;stroke-width:3.69607;stroke-linecap:square;stroke-linejoin:bevel;stroke-opacity:1" />
    <path
       fill-rule="evenodd"
       d="m 179.56254,2199.5777 0.87717,-1.2899 -0.87717,-1.6123 -3.65983,-3.2362 -1.60188,-4.8485 -2.45531,4.8485 2.45531,3.7775 1.05334,1.071 4.20837,1.2899"
       vector-effect="none"
       id="path1200"
       style="font-style:normal;font-weight:400;font-size:54.3472px;font-family:'.AppleSystemUIFont';opacity:0.973154;fill:none;stroke:#42efa7;stroke-width:3.69607;stroke-linecap:square;stroke-linejoin:bevel;stroke-opacity:1" />
    <path
       fill-rule="evenodd"
       d="m 834.63589,2212.8333 -2.63648,0.7026 -5.26047,0.9213 -0.85342,-1.6239 -0.85717,-4.8485 1.71059,-2.3378 5.26047,-0.9674 h 5.26047 l 3.94847,3.3052 -3.94847,3.6393 -2.62399,1.2092"
       vector-effect="none"
       id="path1224"
       style="font-style:normal;font-weight:400;font-size:54.3472px;font-family:'.AppleSystemUIFont';opacity:0.973154;fill:none;stroke:#42efa7;stroke-width:3.69607;stroke-linecap:square;stroke-linejoin:bevel;stroke-opacity:1" />
    <path
       fill-rule="evenodd"
       d="m 179.56254,2234.5077 2.4703,-2.2688 2.79142,-2.1076 3.2525,-2.7409 -3.2525,-4.7103 -5.26172,2.6258 -4.20837,-2.764 0.1162,-4.8601 -0.0675,-4.8485 0.30988,-4.8485 -0.1412,-4.8485 -1.27075,-3.7659 -1.02211,3.7659 -0.58477,4.8485 0.32737,4.8485 -0.59852,4.8485 -3.38244,2.7295 -1.27076,2.1306 -0.55104,4.8485 1.8218,3.7889 1.1433,1.0596 4.11717,4.5951 5.26171,-2.3263"
       vector-effect="none"
       id="path1232"
       style="font-style:normal;font-weight:400;font-size:54.3472px;font-family:'.AppleSystemUIFont';opacity:0.973154;fill:none;stroke:#42efa7;stroke-width:3.69607;stroke-linecap:square;stroke-linejoin:bevel;stroke-opacity:1" />
    <path
       fill-rule="evenodd"
       d="m 361.8984,2288.0024 v -2.4185 l -0.009,-4.8485 0.28239,-4.8485 -3.71356,-2.3378 -5.26172,-0.979 -2.30286,-1.5432 -2.95886,-2.7179 -1.47318,-2.1306 -1.68435,-4.8485 -2.10419,-2.5452 -3.94597,-2.3033 -1.31575,-0.6564 -5.26172,-3.3053 -5.26171,3.3628 -0.75096,0.5989 -4.51076,2.9137 -2.2154,1.9348 -3.04632,2.05 -5.26172,2.6258 -5.26172,-0.4262 -5.26047,-1.9347 -5.26172,1.2783 -5.26171,0.5413 -5.26172,0.1842 -1.57939,0.5298 -3.68233,1.7045 -5.26172,0.7255 -1.43445,-2.43 -2.63898,-4.8485 -1.18829,-2.6028 -0.98712,-2.2457 -2.34534,-4.8485 -1.92926,-4.0999 -0.21491,-0.7486 0.21491,-0.4031 2.41157,-4.4454 1.23078,-4.8485 -0.06,-4.8485 -0.31988,-4.8485 -0.73721,-4.8485 -1.37072,-4.8601 -0.72722,-4.8485 -0.42734,-1.8196 -0.54479,1.8196 -1.08833,4.8485 -1.44694,4.8601 -0.46607,4.8485 -0.46232,4.8485 -1.25327,2.5452 -1.75307,2.3033 -3.50865,2.81 -5.26171,-2.3148 -1.3145,-0.4952 -3.94722,-2.0039 -4.70694,-2.8446 -0.55353,-0.6104 -3.50865,-4.2381 -1.75307,-1.8888 -5.26172,0.4607 -5.26172,-1.2438 -4.13465,2.6719 -1.12707,0.5297 -5.26171,3.1441 -5.26172,-2.8907 -1.02711,-0.7831 -4.23461,-4.1115 -0.7697,-0.737 -4.49202,-3.2132 -5.26172,0.1152 -5.12302,3.098 5.12302,3.0864 5.26172,0.2995 1.64436,1.4626 2.49779,4.8485 1.11957,1.4626 3.66733,3.3859 1.59439,0.8983 4.36831,3.9502 0.89341,0.6564 5.26171,1.2208 5.26172,0.4492 5.26172,0.9098 2.70521,1.6123 2.55651,2.9483 2.41157,1.9002 2.85015,2.6258 2.41157,2.2227 2.8489,4.8485 v 0 l 3.30747,4.8485 1.0471,4.8485 -0.58353,4.86 -1.28575,4.8485 2.77643,4.1806 0.52604,0.6679 v 2.4185"
       vector-effect="none"
       id="path1308"
       style="font-style:normal;font-weight:400;font-size:54.3472px;font-family:'.AppleSystemUIFont';opacity:0.973154;fill:none;stroke:#42efa7;stroke-width:3.69607;stroke-linecap:square;stroke-linejoin:bevel;stroke-opacity:1" />
    <path
       fill-rule="evenodd"
       d="m 847.79331,2288.06 2.0617,-2.4761 0.61227,-4.8485 0.68723,-4.8485 1.89927,-3.501 0.71222,-1.359 2.37409,-4.8485 2.17416,-0.5643 5.26047,0.5067 5.26047,-1.0941 2.94886,-3.6968 2.31161,-1.7851 5.02306,-3.0634 0.23741,-0.1152 5.26046,-2.9943 1.51192,-1.739 3.74855,-3.8005 0.98712,-1.048 3.42368,-4.8485 -4.4108,-4.3648 -2.99884,-0.4837 -2.26163,-0.2764 -1.21203,0.2764 -4.04843,1.2438 -5.26047,2.4761 -5.26047,0.7025 -5.26047,-0.7832 -2.56151,-3.6392 -2.69896,-4.0078 -0.49981,-0.8407 -0.59977,-4.8485 1.09958,-3.9733 0.43733,-0.8752 -0.43733,-3.2362 -0.29989,-1.6239 -2.09918,-4.8485 -2.42407,-4.8485 3.51115,-4.8485 1.31199,-0.5412 3.23625,-4.3073 0.025,-4.8485 -3.26124,-3.6392 -1.17455,-1.2093 -4.08592,-4.2496 -0.34987,-0.5989 -0.2499,-4.8485 0.59977,-2.43 1.61188,-2.4185 3.64859,-1.6814 2.36159,1.6814 2.89888,2.05 4.44828,-2.05 0.81219,-0.2879 2.63648,0.2879 2.62399,0.5067 0.54978,-0.5067 2.96136,-4.8485 1.51192,-4.86 0.23741,-0.4837 2.96135,-4.3648 2.29911,-2.6028 1.97424,-2.2457 3.28623,-4.0424 0.46232,-0.8061 3.74856,-4.8485 1.04959,-1.5202 4.46078,-3.3283 0.81219,-0.5759 5.26047,-2.6603 1.26201,-1.6123 2.53652,-4.8485 1.46194,-1.6239 4.04843,-3.2247 -4.04843,-4.0423 -5.26047,-0.3455 -1.17455,-0.4607 -4.08592,-2.6142 -5.27297,1.1171 -2.62398,1.4971 -2.63649,1.382 -1.67435,-1.382 -0.29988,-4.8485 1.97423,-1.8196 5.26047,-1.9809 1.14956,-1.0595 2.43656,-4.8485 1.47443,-4.8485 0.21242,-0.1497 5.26047,-1.6239 5.26047,-0.3339 5.26046,-0.6565 5.26047,-0.7025 1.74933,-1.382 3.51114,-3.5241 1.43695,-1.3244 3.82352,-3.5241 2.63648,-1.3244 2.62399,-0.691 5.26047,-2.0385 5.26047,-1.8541 1.76182,-0.2649 3.49865,-0.357 5.27296,-1.9694 2.62399,-2.5221 2.63648,-2.0845 5.26047,-1.4281 2.3366,-1.3359 -1.06209,-4.8485 -1.27451,-2.43 -2.3366,-2.4185 -2.92387,-2.6949 -2.63648,-2.1652 2.63648,-2.2802 5.26047,0.8061 5.26047,-1.6699 1.53691,-1.7045 3.72356,-2.0614 3.3612,-2.7871 1.89927,-1.2092 5.26047,-1.3935 2.43656,-2.2458 2.82391,-4.8485 v 0 l 3.38619,-4.8485 1.87426,-3.7314 0.5498,-1.1171 0.7747,-4.8485 -1.3245,-1.739 -1.34946,-3.1095 -1.18705,-4.8485 -0.66224,-4.8485 -0.82468,-4.86 1.52441,-4.8485 1.12457,-4.8485 1.37445,-4.1575 0.2124,-0.691 1.8618,-4.8485 2.7489,-4.8485 0.4374,-0.5759 5.2604,-3.812 1.1746,-0.4606 4.0984,-2.1191 3.6361,-2.7295 1.6244,-1.2207 3.1488,-3.6278 2.1116,-1.8541 5.2605,-2.0845 1.8493,-0.9099 3.4112,-1.9117 5.2605,0.2303 4.4732,-3.1786 -1.8368,-4.8485 -2.6364,-0.691 -5.2605,-3.6047 -0.7747,-0.5528 0.7747,-3.2246 0.3873,-1.6239 2.4616,-4.8485 2.4116,-3.3283 1.1495,-1.5202 2.674,-4.8485 1.4369,-2.9137 1.237,-1.9348 2.3616,-4.8485 1.6619,-4.8485 v 0 l 1.9742,-4.8485 2.8864,-4.86 0.3999,-0.4377 4.7856,-4.4109 -0.05,-4.8485 -3.1488,-4.8485 v -4.8485 l 2.5116,-4.8485 1.162,-1.382 2.3991,-3.4665 -0.6373,-4.8485 0.8747,-4.8485 2.624,-2.2457 3.3487,-2.6028 1.9243,-0.8177 5.2604,-1.8542 2.4866,-2.1766 2.7739,-4.4109 0.3124,-0.4491 4.4233,-4.8485 0.5248,-0.4837 3.6361,-4.3648 1.6243,-3.2247 0.8122,-1.6238 3.2738,-4.8485 1.1745,-4.8485 v 0 l 3.5112,-4.8485 1.7493,-2.4301 1.312,-2.4184 -0.2624,-4.8486 4.2108,-4.8485 v -4.8485 l -5.2604,-0.9789 -1.312,0.9789 -3.9485,4.8485 v 0 l -5.2605,4.8485 v 0 l -5.2604,3.5702 -1.387,1.2784 -3.8735,3.7659 -1.3245,1.0826 -3.936,3.6392 -1.5119,1.2093 -3.7485,3.7314 -3.9485,1.1171 -1.3245,0.4837 -5.2605,1.6008 -5.2604,0.4722 -5.2605,0.1382 -5.2605,0.8752 -1.7493,1.2784 -3.5111,3.0288 -3.5112,1.8197 3.5112,1.3244 5.2604,1.1056 2.9614,2.4185 -0.3249,4.8485 -2.6365,1.5547 -5.2604,2.5682 -0.7498,0.7371 -2.5615,4.8485 -1.9492,2.8446 -1.412,2.0039 -1.5744,4.8485 -0.9246,4.8485 -0.8997,4.8485 -0.4498,1.0365 -1.8118,3.812 -1.9867,4.8485 -1.462,3.2362 -1.0995,1.6123 -3.2113,4.8485 -0.9496,1.4972 -2.6365,3.3514 -2.624,3.121 -1.4619,1.739 -2.4241,4.8485 -1.387,3.0289 -1.0496,1.8196 -4.2108,4.8485 v 0 l -2.8864,4.8485 -2.3741,2.9137 -3.14877,1.9348 -2.11168,1.382 -4.04844,3.4665 -1.21203,0.7716 -5.26047,2.8677 -1.49942,1.2092 -3.76105,3.2362 -2.19915,1.6123 -3.06132,2.2688 -5.26047,2.5797 v 0 l -5.26047,2.1651 -5.26047,1.0711 -5.27296,0.8062 -5.26047,-0.058 -5.26047,0.1151 -1.13706,0.7486 -0.89965,4.86 -3.22376,2.7986 -4.21087,2.0499 -1.0496,0.5644 -5.26047,2.7409 -4.09842,1.5432 0.58728,4.8486 2.01172,4.8485 0.44983,4.8485 0.38735,4.8485 0.66224,1.2092 1.74933,3.6393 0.43733,4.8485 -0.43733,4.8485 0.12495,4.86 -1.87428,3.0289 -5.26047,1.1171 -5.26047,-1.2438 -5.26046,0.9674 -1.06209,0.9789 -3.54863,4.8485 0.92464,4.8485 3.68608,4.8485 v 0 l 4.08592,4.8485 1.17454,2.43 1.0496,2.4185 -1.0496,2.43 -1.51191,2.4185 -3.74855,2.43 -2.19916,2.4185 -1.21203,4.8485 -1.84928,3.6393 -2.63649,1.2092 -2.62398,1.0826 -0.96213,-1.0826 -4.31084,-3.3513 -3.49865,-1.4972 -1.76182,-0.5988 -5.26047,-2.9483 -1.74932,-1.3014 -3.51114,-2.2803 -4.29835,-2.5682 -0.96212,-0.5988 -5.26047,-3.8466 -0.47482,-0.4031 -4.78565,-3.4665 -3.51115,-1.382 -1.74932,-0.7486 -0.56228,0.7486 0.56228,0.9674 2.3366,3.8811 1.61187,4.8485 1.312,1.9463 1.74932,2.9022 3.51115,4.8485 v 0 l 3.42368,4.8485 1.83679,2.6143 2.11168,2.2458 3.14879,3.6277 0.92464,1.2208 -0.92464,1.6123 -1.43695,3.2362 -2.64898,4.8485 0.66225,4.8485 -1.83679,1.1747 -3.31123,3.6738 -1.94924,2.0384 -2.87389,2.8101 -2.38658,2.6949 -3.51115,2.1536 -1.74932,1.0365 -5.26047,2.3955 -2.31161,1.4165 -0.44982,4.8485 2.12418,4.8485 0.63725,1.025 1.87428,3.835 2.66147,4.8485 -2.22414,4.8485 -2.31161,4.8486 v 0 l -2.14917,4.8485 -2.97385,4.8485 -0.13745,0.1382 -4.98557,4.7103 -0.2749,0.3339 -3.74855,4.5146 -1.52441,2.1305 -3.67358,2.718 -1.58689,1.4626 -3.49865,3.3859 -1.76182,2.8331 -1.14081,2.0154 -3.65984,4.86 -0.45732,0.5989 -4.33333,4.2496 -0.92839,0.9674 -2.74519,3.8811 -2.51653,1.405 -4.43953,3.4435 -0.82219,0.5298 -5.26172,2.0269 -5.26171,0.9329 -0.94464,1.3589 -0.2699,4.8485 -2.36783,4.8485 -1.67935,4.8485 v 0 l -2.63024,4.8485 -2.42906,4.8485 -0.20242,0.4492 -2.28787,4.3993 -2.97385,3.9503 -0.71722,0.9098 -1.50817,4.8485 -0.99961,4.8485 -0.2824,4.8485 -1.09582,4.8485 0.61726,4.8485 -1.27576,3.8811 -0.52605,0.9674 -4.10341,4.8485 -0.63226,1.2093 -1.75307,3.6392 -3.50865,4.1575 -0.68598,0.691 -4.57573,3.5932 -1.15081,1.2553 -0.20117,4.86 -1.15831,4.8485 -1.5444,4.8485 -1.20578,2.05"
       vector-effect="none"
       id="path1340"
       sodipodi:nodetypes="cccccccccccccccccccccccccccccccccccccccccccccccccccccccccccccccccccccccccccccccccccccccccccccccccccccccccccccccccccccccccccccccccccccccccccccccccccccccccccccccccccccccccccccccccccccccccccccccccccccccccccccccccccccccccccccccccccccccccccccccccccccccccccccccccccccccccccccccccccccccccccccccccccccccccccccccccccccccccccccccccccccccccccccccccccccccccccccccccccccccccccccccccccccccccccccccccccccccccccccccccc"
       style="font-style:normal;font-weight:400;font-size:54.3472px;font-family:'.AppleSystemUIFont';opacity:0.973154;fill:none;stroke:#42efa7;stroke-width:3.69607;stroke-linecap:square;stroke-linejoin:bevel;stroke-opacity:1" />
  </g>
</svg>
